<?xml version="1.0" encoding="UTF-8" standalone="no"?>
<svg
   xmlns:dc="http://purl.org/dc/elements/1.1/"
   xmlns:cc="http://creativecommons.org/ns#"
   xmlns:rdf="http://www.w3.org/1999/02/22-rdf-syntax-ns#"
   xmlns:svg="http://www.w3.org/2000/svg"
   xmlns="http://www.w3.org/2000/svg"
   xmlns:sodipodi="http://sodipodi.sourceforge.net/DTD/sodipodi-0.dtd"
   xmlns:inkscape="http://www.inkscape.org/namespaces/inkscape"
   sodipodi:docname="alcohol.svg"
   inkscape:version="1.0 (4035a4fb49, 2020-05-01)"
   id="svg8364"
   version="1.1"
   viewBox="0 0 17.727102 17.230553"
   height="17.230553mm"
   width="17.727102mm">
  <defs
     id="defs8358" />
  <sodipodi:namedview
     inkscape:window-maximized="0"
     inkscape:window-y="0"
     inkscape:window-x="234"
     inkscape:window-height="1009"
     inkscape:window-width="1375"
     showgrid="false"
     inkscape:document-rotation="0"
     inkscape:current-layer="layer1"
     inkscape:document-units="mm"
     inkscape:cy="141.13311"
     inkscape:cx="-203.64282"
     inkscape:zoom="0.35"
     inkscape:pageshadow="2"
     inkscape:pageopacity="0.0"
     borderopacity="1.0"
     bordercolor="#666666"
     pagecolor="#ffffff"
     id="base" />
  <metadata
     id="metadata8361">
    <rdf:RDF>
      <cc:Work
         rdf:about="">
        <dc:format>image/svg+xml</dc:format>
        <dc:type
           rdf:resource="http://purl.org/dc/dcmitype/StillImage" />
        <dc:title></dc:title>
      </cc:Work>
    </rdf:RDF>
  </metadata>
  <g
     transform="translate(-159.71383,-110.8252)"
     id="layer1"
     inkscape:groupmode="layer"
     inkscape:label="Layer 1">
    <g
       id="g2217"
       transform="matrix(0.55397141,0,0,0.5457031,159.71379,110.8252)">
      <path
         d="M 22.93,0.64700007 C 22.93,2.688 22.861,4.7969999 22.861,6.8380003 22.861,9.0139999 22.249001,10.307 20.820999,11.735 c -1.564998,1.497 -1.292999,4.49 -1.361,6.394999 -0.068,3.605002 -0.611999,7.823 0.136002,11.360001 0.611999,2.993002 2.788999,1.905 5.441999,1.837 1.021,0 5.714001,0.68 6.259001,-0.543999 1.292,-3.198002 0.407999,-8.164002 0.407999,-11.497002 0,-2.244999 0,-4.488999 0,-6.801999 0,-0.408 0,-1.225 -0.34,-1.496999 C 29.596001,9.559 28.099001,8.5380001 28.099001,5.8850002 28.099001,4.1170001 28.440001,2.076 27.962999,0.375 27.895,0.30700001 27.827,0.17100002 27.622999,0.17100002 26.330999,-0.169 24.902,0.103 23.610001,0.103 c -0.544001,0 -0.544001,0.88400005 0,0.81600003 0.951999,0 3.604999,-0.61200002 3.604999,1.29299987 0,1.6320002 0,3.3330002 0,4.9660001 0,2.0400004 0.136,2.381 1.905001,3.401001 C 32.181,12.28 30.888,18.945999 30.888,22.007 c 0,1.701 0,3.402 0,5.101999 0,2.245001 -0.544,3.197001 -3.061,3.265002 -1.836001,0.068 -3.605,0.068 -5.442,0.135999 -2.653,0.068 -2.040001,-4.557001 -2.040001,-5.986 0,-3.333 -0.205,-6.870001 0.272002,-10.204 0.34,-2.244 2.857,-2.789 3.128999,-4.9650005 0.407999,-2.8579993 0.068,-5.9189994 0.068,-8.7759995 0,-0.476 -0.816,-0.476 -0.883999,0.0680001 M 0.41299999,14.524 C 2.9300001,14.456 5.447,14.32 8.0319996,14.252 8.5080004,14.252 11.161,13.776 11.229,14.66 c 0.136,1.497 -0.068,2.993999 -0.34,4.422001 -0.748,3.469 -4.1500002,6.667 -7.4829999,3.741998 C 1.161,20.851 0.82099998,16.701 0.889,13.98 c 0,-0.544 -0.81599999,-0.544 -0.884,0 -0.068,3.470001 0.54400002,7.551 3.3330001,9.932001 2.1769998,1.904998 5.5780003,0.816 7.0749999,-1.497 0.884,-1.428001 1.36,-2.857 1.564,-4.557001 0.204,-1.157 0.545,-3.334 -0.068,-4.354 -0.476,-0.748 -3.1970001,-0.136 -3.8770004,-0.136 -2.5169997,0.068 -5.0339995,0.204 -7.61899961,0.272 -0.54399999,0.068 -0.54399999,0.952 0,0.884 m 5.37400021,10.34 c 0,1.768999 0.068,3.538 0.2719998,5.306 0.068,0.544001 0.9530001,0.544001 0.8850002,0 -0.2050004,-1.768 -0.341,-3.537001 -0.2730002,-5.306 0,-0.544 -0.8839998,-0.544 -0.8839998,0 M 2.454,31.191 c 2.4489999,0 4.8299999,-0.068 7.2789998,-0.068 0.5440002,0 0.5440002,-0.884998 0,-0.884998 -2.4489999,0 -4.8299999,0.068 -7.2789998,0.068 -0.612,0.068 -0.612,0.885 0,0.885 M 0.75300002,18.062 C 4.1539998,17.994 7.6240001,17.994 11.025,18.198 c 0.544,0 0.544,-0.816 0,-0.885 -3.4690002,-0.136 -6.8710002,-0.136 -10.27199998,-0.068 -0.54400001,0 -0.61200002,0.884998 0,0.816999 M 8.3719997,13.708 c -0.068,-0.748 -0.068,-1.496 0,-2.312999 C 8.3719997,9.967 11.093,10.375 11.909,10.375 c 1.089,0 2.177,0 3.266,-0.068 1.291999,0 2.992999,-0.6120003 3.129001,1.292 0.203998,2.313 0.068,4.422 -1.157002,6.463 C 15.651,20.511 13.542,20.511 11.093,19.761999 c -0.544,-0.136 -0.748,0.681002 -0.204,0.817001 2.653,0.816 4.694,0.816 6.530001,-1.429 C 19.323999,16.837 19.528,13.64 19.052,10.783 18.983999,10.171001 18.712,9.4910002 17.964001,9.4910002 15.923,9.3549995 13.882,9.4910002 11.841,9.559 10.957,9.559 8.5760002,9.0819998 7.8959999,9.8310003 7.0799999,10.647 7.4879999,12.756 7.5559998,13.776 c 0,0.476 0.8839998,0.476 0.8159999,-0.068 M 12.998,21.055 c -0.068,1.837 -0.068,3.741 -0.136,5.577999 0,0.544001 0.816001,0.544001 0.884,0 C 13.814,24.796 13.814,22.892 13.882,21.055 c 0,-0.544 -0.884,-0.544 -0.884,0 m -3.1970004,6.053999 c 2.4490004,0 4.8290004,0 7.2780004,0 0.545001,0 0.545001,-0.883999 0,-0.883999 -2.449,0 -4.829,0 -7.2780004,0 -0.545,0.068 -0.545,0.883999 0,0.883999 M 23.474001,3.8440001 c 1.292,0.068 2.584999,0 3.945,-0.1360002 0.543998,-0.068 0.543998,-0.884 0,-0.884 C 26.127001,2.96 24.834,3.0280001 23.474001,2.96 c -0.544001,0 -0.544001,0.816 0,0.8840001"
         style="fill:#fec80f;fill-opacity:1;fill-rule:evenodd;stroke:none"
         id="path2219" />
    </g>
  </g>
</svg>
