<?xml version="1.0" encoding="UTF-8" standalone="no"?>
<!-- Created with Inkscape (http://www.inkscape.org/) -->

<svg
   version="1.1"
   id="svg3999"
   xml:space="preserve"
   width="42.728905"
   height="50.647705"
   viewBox="0 0 42.728905 50.647705"
   sodipodi:docname="apple.svg"
   inkscape:version="1.3.2 (091e20e, 2023-11-25, custom)"
   xmlns:inkscape="http://www.inkscape.org/namespaces/inkscape"
   xmlns:sodipodi="http://sodipodi.sourceforge.net/DTD/sodipodi-0.dtd"
   xmlns="http://www.w3.org/2000/svg"
   xmlns:svg="http://www.w3.org/2000/svg"><sodipodi:namedview
     id="namedview1"
     pagecolor="#ffffff"
     bordercolor="#000000"
     borderopacity="0.25"
     inkscape:showpageshadow="2"
     inkscape:pageopacity="0.0"
     inkscape:pagecheckerboard="0"
     inkscape:deskcolor="#d1d1d1"
     inkscape:zoom="1.1909179"
     inkscape:cx="324.53958"
     inkscape:cy="274.99796"
     inkscape:window-width="1920"
     inkscape:window-height="1009"
     inkscape:window-x="-8"
     inkscape:window-y="-8"
     inkscape:window-maximized="1"
     inkscape:current-layer="svg3999" /><defs
     id="defs4003"><clipPath
       clipPathUnits="userSpaceOnUse"
       id="clipPath4013"><path
         d="M 0,512 H 512 V 0 H 0 Z"
         id="path4011" /></clipPath></defs><g
     id="g4005"
     transform="matrix(0.09892134,0,0,-0.09892134,-3.9594157,50.647706)"
     style="fill:none;fill-opacity:1;stroke:#fec90f;stroke-opacity:0.807843"><g
       id="g4007"
       style="fill:none;fill-opacity:1;stroke:#fec90f;stroke-opacity:0.807843"><g
         id="g4009"
         clip-path="url(#clipPath4013)"
         style="fill:none;fill-opacity:1;stroke:#fec90f;stroke-opacity:0.807843"><g
           id="g4015"
           transform="translate(276.7432,16.2393)"
           style="fill:none;fill-opacity:1;stroke:#fec90f;stroke-opacity:0.807843"><path
             d="m 0,0 c 0.914,-0.241 1.825,-0.499 2.733,-0.773 11.185,-3.374 24.187,-5.466 37.224,-5.466 20.624,0 42.29,12.19 62.405,31.51 45.356,43.505 82.869,123.142 82.869,180.768 0,83.196 -49.82,133.461 -96.668,145.594 -19.694,5.097 -42.137,2.844 -61.546,-1.476"
             style="fill:none;fill-opacity:1;stroke:#fec90f;stroke-width:20;stroke-linecap:round;stroke-linejoin:round;stroke-miterlimit:10;stroke-dasharray:none;stroke-opacity:0.807843"
             id="path4017" /></g><g
           id="g4019"
           transform="translate(378.6851,144.9492)"
           style="fill:none;fill-opacity:1;stroke:#fec90f;stroke-opacity:0.807843"><path
             d="m 0,0 c 10.416,26.81 16.623,53.89 16.623,77.329 0,80.17 -46.263,129.761 -91.548,144.118 3.778,0.841 -1.788,-0.316 -7.963,-1.922 -4.372,-1.131 -8.779,-2.08 -13.221,-2.842"
             style="fill:none;fill-opacity:1;stroke:#fec90f;stroke-width:20;stroke-linecap:round;stroke-linejoin:round;stroke-miterlimit:10;stroke-dasharray:none;stroke-opacity:0.807843"
             id="path4021" /></g><g
           id="g4023"
           transform="translate(358.7808,102.9727)"
           style="fill:none;fill-opacity:1;stroke:#fec90f;stroke-opacity:0.807843"><path
             d="M 0,0 V 0"
             style="fill:none;fill-opacity:1;stroke:#fec90f;stroke-width:20;stroke-linecap:round;stroke-linejoin:round;stroke-miterlimit:10;stroke-dasharray:none;stroke-opacity:0.807843"
             id="path4025" /></g><g
           id="g4027"
           transform="translate(137.2749,364.9287)"
           style="fill:none;fill-opacity:1;stroke:#fec90f;stroke-opacity:0.807843"><path
             d="m 0,0 c -43.867,-16.057 -87.249,-65.016 -87.249,-142.65 0,-56.389 35.928,-133.877 79.977,-177.937 20.925,-20.949 43.689,-34.342 65.297,-34.342 13.037,0 26.038,2.092 37.224,5.466 14.424,4.36 29.709,4.616 44.234,0.77 -0.004,10e-4 -0.01,0.003 -0.015,0.004"
             style="fill:none;fill-opacity:1;stroke:#fec90f;stroke-width:20;stroke-linecap:round;stroke-linejoin:round;stroke-miterlimit:10;stroke-dasharray:none;stroke-opacity:0.807843"
             id="path4029" /></g><g
           id="g4031"
           transform="translate(272.0059,350.4658)"
           style="fill:none;fill-opacity:1;stroke:#fec90f;stroke-opacity:0.807843"><path
             d="M 0,0 V 15.063 C 0,116.861 88.235,151.534 88.235,151.534"
             style="fill:none;fill-opacity:1;stroke:#fec90f;stroke-width:20;stroke-linecap:round;stroke-linejoin:round;stroke-miterlimit:10;stroke-dasharray:none;stroke-opacity:0.807843"
             id="path4033" /></g><g
           id="g4035"
           transform="translate(270.3638,332.8105)"
           style="fill:none;fill-opacity:1;stroke:#fec90f;stroke-opacity:0.807843"><path
             d="m 0,0 v 0 c 0,0 15.016,83.923 -27.54,126.434 -42.555,42.51 -126.567,27.51 -126.567,27.51 v -10e-4"
             style="fill:none;fill-opacity:1;stroke:#fec90f;stroke-width:20;stroke-linecap:round;stroke-linejoin:round;stroke-miterlimit:10;stroke-dasharray:none;stroke-opacity:0.807843"
             id="path4037" /></g><g
           id="g4039"
           transform="translate(116.2563,486.7539)"
           style="fill:none;fill-opacity:1;stroke:#fec90f;stroke-opacity:0.807843"><path
             d="m 0,0 c -0.006,-0.036 -15.007,-83.932 27.54,-126.433 42.546,-42.501 126.531,-27.516 126.567,-27.51 l -91.274,91.177"
             style="fill:none;fill-opacity:1;stroke:#fec90f;stroke-width:20;stroke-linecap:round;stroke-linejoin:round;stroke-miterlimit:10;stroke-dasharray:none;stroke-opacity:0.807843"
             id="path4041" /></g></g></g></g></svg>
