<?xml version="1.0" encoding="UTF-8" standalone="no"?>
<svg
   xmlns:dc="http://purl.org/dc/elements/1.1/"
   xmlns:cc="http://creativecommons.org/ns#"
   xmlns:rdf="http://www.w3.org/1999/02/22-rdf-syntax-ns#"
   xmlns:svg="http://www.w3.org/2000/svg"
   xmlns="http://www.w3.org/2000/svg"
   xmlns:sodipodi="http://sodipodi.sourceforge.net/DTD/sodipodi-0.dtd"
   xmlns:inkscape="http://www.inkscape.org/namespaces/inkscape"
   sodipodi:docname="babies.svg"
   inkscape:version="1.0 (4035a4fb49, 2020-05-01)"
   id="svg5378"
   version="1.1"
   viewBox="0 0 49.388889 29.468576"
   height="29.468576mm"
   width="49.388889mm">
  <defs
     id="defs5372" />
  <sodipodi:namedview
     inkscape:window-maximized="0"
     inkscape:window-y="0"
     inkscape:window-x="78"
     inkscape:window-height="1009"
     inkscape:window-width="1375"
     showgrid="false"
     inkscape:document-rotation="0"
     inkscape:current-layer="layer1"
     inkscape:document-units="mm"
     inkscape:cy="167.11721"
     inkscape:cx="170.47619"
     inkscape:zoom="0.35"
     inkscape:pageshadow="2"
     inkscape:pageopacity="0.0"
     borderopacity="1.0"
     bordercolor="#666666"
     pagecolor="#ffffff"
     id="base" />
  <metadata
     id="metadata5375">
    <rdf:RDF>
      <cc:Work
         rdf:about="">
        <dc:format>image/svg+xml</dc:format>
        <dc:type
           rdf:resource="http://purl.org/dc/dcmitype/StillImage" />
        <dc:title></dc:title>
      </cc:Work>
    </rdf:RDF>
  </metadata>
  <g
     transform="translate(-60.728174,-103.95024)"
     id="layer1"
     inkscape:groupmode="layer"
     inkscape:label="Layer 1">
    <g
       id="g2345"
       transform="matrix(0.95911453,0,0,0.97013879,60.728174,104.27521)">
      <path
         d="m 19.104,9.3079996 c 0,0 -9.2390002,0 -9.2390002,0 0,0 0,7.2510004 0,7.2510004 0,0 -1.1609993,-1.161 -1.1609993,-1.161 C 7.507,14.201 5.559,14.19 4.3740001,15.374 3.191,16.558001 3.201,18.506001 4.3990002,19.704 c 0,0 0.5549998,0.553999 0.5549998,0.553999 0,0 -1.8740001,0 -1.8740001,0 C 1.386,20.257999 0,21.322001 0,22.621 c 0,1.299 1.386,2.360001 3.0799999,2.360001 0,0 8.0190001,0 8.0190001,0 0,0 -0.013,-0.013 -0.013,-0.013 0.736,-0.031 1.46,-0.312999 2.015,-0.868 1.184,-1.184 1.173,-3.132999 -0.025,-4.33 0,0 -1.276,-1.276001 -1.276,-1.276001 0,0 5.662,0.041 5.662,0.041 0,0 0,3.367 0,3.367 0,1.694001 1.062,3.08 2.361,3.08 1.299,-9.99e-4 2.361,-1.387001 2.361,-3.080999 0,0 0,-6.434001 0,-6.434001 0,0 0,-1.017 0,-1.017 0,0 0,-2.061999 0,-2.061999 0,-1.701001 -1.379,-3.0800014 -3.08,-3.0800014 M 20.726999,5.645 c 0,4.3390002 4.697001,7.051 8.455,4.881 C 30.926001,9.5190001 32,7.6589999 32,5.645 32,1.306 27.302999,-1.406 23.545,0.764 21.801001,1.77 20.726999,3.631 20.726999,5.645"
         style="fill:#3ba6b4;fill-opacity:1;fill-rule:evenodd;stroke:none"
         id="path2347" />
    </g>
    <g
       id="g2349"
       transform="matrix(1.1796007,0,0,1.1796007,72.369841,103.95003)">
      <path
         d="m 19.104,9.3079996 c 0,0 -9.2390002,0 -9.2390002,0 0,0 0,7.2510004 0,7.2510004 0,0 -1.1609993,-1.161 -1.1609993,-1.161 C 7.507,14.201 5.559,14.19 4.3740001,15.374 3.191,16.558001 3.201,18.506001 4.3990002,19.704 c 0,0 0.5549998,0.553999 0.5549998,0.553999 0,0 -1.8740001,0 -1.8740001,0 C 1.386,20.257999 0,21.322001 0,22.621 c 0,1.299 1.386,2.360001 3.0799999,2.360001 0,0 8.0190001,0 8.0190001,0 0,0 -0.013,-0.013 -0.013,-0.013 0.736,-0.031 1.46,-0.312999 2.015,-0.868 1.184,-1.184 1.173,-3.132999 -0.025,-4.33 0,0 -1.276,-1.276001 -1.276,-1.276001 0,0 5.662,0.041 5.662,0.041 0,0 0,3.367 0,3.367 0,1.694001 1.062,3.08 2.361,3.08 1.299,-9.99e-4 2.361,-1.387001 2.361,-3.080999 0,0 0,-6.434001 0,-6.434001 0,0 0,-1.017 0,-1.017 0,0 0,-2.061999 0,-2.061999 0,-1.701001 -1.379,-3.0800014 -3.08,-3.0800014 M 20.726999,5.645 c 0,4.3390002 4.697001,7.051 8.455,4.881 C 30.926001,9.5190001 32,7.6589999 32,5.645 32,1.306 27.302999,-1.406 23.545,0.764 21.801001,1.77 20.726999,3.631 20.726999,5.645"
         style="fill:#3ba6b4;fill-opacity:1;fill-rule:evenodd;stroke:none"
         id="path2351" />
    </g>
  </g>
</svg>
