<?xml version="1.0" encoding="UTF-8" standalone="no"?>
<!-- Created with Inkscape (http://www.inkscape.org/) -->

<svg
   width="10.282677mm"
   height="16.290682mm"
   viewBox="0 0 10.282677 16.290682"
   version="1.1"
   id="svg1"
   xml:space="preserve"
   xmlns="http://www.w3.org/2000/svg"
   xmlns:svg="http://www.w3.org/2000/svg"><defs
     id="defs1"><clipPath
       clipPathUnits="userSpaceOnUse"
       id="clipPath1995"><path
         d="M 0,2.4414063e-4 H 2475 V 3503.1252 H 0 Z"
         clip-rule="evenodd"
         id="path1993" /></clipPath></defs><g
     id="layer1"
     transform="translate(-3.4435277,-5.1552779)"><path
       d="m 13.281552,12.61788 c -0.277938,-0.7394 -0.718968,-0.912131 -1.17779,-0.948937 V 9.2328149 C 12.114119,9.0651243 12.194187,7.3088923 11.114331,6.1491322 10.508521,5.4985329 9.6623229,5.1672794 8.5990766,5.1644715 8.4465428,5.1503987 7.357553,5.0773618 6.5964005,5.7585426 6.120528,6.1845512 5.8792258,6.8041632 5.8792258,7.6001597 c 0,0.047935 0.010318,1.1332711 0.8177145,1.7652654 a 1.8978069,1.8978069 0 0 0 1.0767094,1.5697999 v 0.522152 c -0.2757064,0.0754 -0.8190001,0.202263 -1.35316,0.202263 -0.3579446,0 -0.8481606,0 -1.248696,0.378376 -0.4344997,0.410448 -0.6457281,1.171938 -0.6457281,2.327944 v 0.02063 a 2.1629586,2.1629586 0 0 0 0.00477,3.750318 1.3447705,1.3447705 0 0 0 0.7432229,1.100423 l 2.1692171,1.084592 a 1.0294503,1.0294503 0 0 0 1.023665,1.124036 1.0285708,1.0285708 0 0 0 0.3824708,-0.07402 l 2.0015946,-0.800631 a 0.27032754,0.27032754 0 0 0 0.04962,-0.02611 c 0.610004,-0.406659 1.777071,-1.518484 2.418436,-2.14503 a 1.3602302,1.3602302 0 0 0 0.407132,-0.97573 c -0.01418,-2.578379 -0.147191,-4.01584 -0.44465,-4.806559 z m -4.1282197,5.839935 a 0.81067819,0.81067819 0 0 0 -0.2051059,0.252363 l -1.8196281,-0.90983 a 2.1582903,2.1582903 0 0 0 0.6450514,-1.539965 c 0,-0.06309 -0.00339,-0.125437 -0.00862,-0.187175 a 8.7010896,8.7010896 0 0 1 1.2264709,-0.08346 c 1.0034025,0 1.9073804,0.153786 2.5710034,0.434669 v 0.806414 L 10.391033,18.402267 9.8272737,18.289514 A 0.80851309,0.80851309 0 0 0 9.1533323,18.457815 Z M 7.2323857,16.260383 A 1.6200032,1.6200032 0 0 1 6.6861489,17.473694 C 6.2759722,17.272277 5.6085937,16.853338 5.6085937,16.260383 c 0,-0.580066 -0.1420818,-1.153568 -0.2921473,-1.596965 a 1.6221343,1.6221343 0 0 1 1.9159393,1.596965 z M 6.4204897,7.6001597 c 0,-0.6339555 0.1798011,-1.1171014 0.5344983,-1.4359735 0.6196795,-0.557299 1.5916196,-0.461157 1.6007885,-0.4600744 a 0.27526658,0.27526658 0 0 0 0.029767,0.00162 c 0.9119624,0 1.6287995,0.2725265 2.1305165,0.809934 0.950325,1.0179825 0.848229,2.6727279 0.847146,2.6890002 q -7.83e-4,0.00964 -7.83e-4,0.019284 v 6.619659 c -0.467686,-0.17019 -1.019877,-0.28849 -1.6237916,-0.348672 V 9.223954 A 0.270632,0.270632 0 0 0 9.7685232,8.9726692 C 8.5515303,8.4858704 8.0352998,6.9880239 8.0303262,6.9733758 A 0.270632,0.270632 0 0 0 7.5201856,6.9639374 L 6.8455676,8.762963 C 6.430249,8.2821853 6.4204386,7.6074665 6.4204386,7.6001594 Z M 7.2335359,9.2699255 7.7970256,7.7673093 c 0.2831817,0.5237739 0.7949821,1.2460904 1.6004162,1.6330951 v 1.1496446 a 1.3623276,1.3623276 0 0 1 -0.2706324,0.02724 H 8.5855454 A 1.354547,1.354547 0 0 1 7.2335359,9.2699255 Z m -1.690063,3.1615235 c 0.2440762,-0.230546 0.56579,-0.230546 0.8770168,-0.230546 0.8460971,0 1.6745352,-0.272898 1.7093788,-0.284501 A 0.270632,0.270632 0 0 0 8.3149131,11.65964 v -0.560919 a 1.8991601,1.8991601 0 0 0 0.2706323,0.01966 h 0.541264 a 1.9062303,1.9062303 0 0 0 0.2706324,-0.01959 v 4.358122 q -0.2003697,-0.0082 -0.4059479,-0.0084 c -0.1792934,0 -0.3552056,0.0051 -0.5282058,0.01428 0.2955634,-0.354258 0.3928903,-0.807532 0.3928903,-1.096804 A 0.27009073,0.27009073 0 0 0 8.5867627,14.095967 h -0.0013 A 0.27117326,0.27117326 0 0 0 8.314827,14.364772 1.4367853,1.4367853 0 0 1 8.1919597,14.884487 C 8.0676038,15.156608 7.8715996,15.327038 7.596096,15.402848 A 2.178317,2.178317 0 0 0 6.6910611,14.386592 v -0.5619 a 0.2706321,0.2706321 0 0 0 -0.5412642,0 v 0.339137 a 2.1721939,2.1721939 0 0 0 -1.0800584,-6.4e-4 c 0.02094,-0.872044 0.1799703,-1.454274 0.4736737,-1.731773 z m -1.5586711,3.828934 a 1.62457,1.62457 0 0 1 0.8225859,-1.411515 c 0.1234757,0.369583 0.2599421,0.895081 0.2599421,1.411515 0,0.721472 0.5535776,1.222242 1.0739016,1.533605 A 1.6229462,1.6229462 0 0 1 3.9848018,16.260383 Z m 1.5313373,2.492826 A 0.80851309,0.80851309 0 0 1 5.1453732,18.375035 2.1594066,2.1594066 0 0 0 6.6422388,18.162318 l 2.0147539,1.007359 -0.6503287,0.325165 a 1.0179146,1.0179146 0 0 0 -0.3717131,0.317587 z m 7.4247889,-0.740484 c -0.499147,0.487612 -1.714386,1.655321 -2.317659,2.066514 L 8.6485017,20.869111 A 0.48835545,0.48835545 0 0 1 8.2487101,19.978868 L 9.2478495,19.479281 A 0.270632,0.270632 0 0 0 9.3974418,19.237336 V 19.08568 a 0.2703952,0.2703952 0 0 1 0.3237099,-0.265388 l 0.7057413,0.141168 a 0.2708688,0.2708688 0 0 0 0.244447,-0.07402 l 1.353161,-1.35316 a 0.270632,0.270632 0 0 0 0.07926,-0.191371 v -5.132773 c 0.298608,0.02872 0.500398,0.144248 0.671201,0.5983 0.269888,0.717514 0.396375,2.141985 0.410076,4.618843 a 0.81612465,0.81612465 0 0 1 -0.244111,0.585444 z"
       id="path1"
       style="fill:#fec80f;fill-opacity:1;stroke-width:0.0338289" /></g></svg>
