<?xml version="1.0" encoding="UTF-8" standalone="no"?>
<!-- Created with Inkscape (http://www.inkscape.org/) -->

<svg
   width="16.207012mm"
   height="15.461699mm"
   viewBox="0 0 16.207012 15.461699"
   version="1.1"
   id="svg1"
   xml:space="preserve"
   inkscape:version="1.3.2 (091e20e, 2023-11-25, custom)"
   sodipodi:docname="breakfast.svg"
   xmlns:inkscape="http://www.inkscape.org/namespaces/inkscape"
   xmlns:sodipodi="http://sodipodi.sourceforge.net/DTD/sodipodi-0.dtd"
   xmlns="http://www.w3.org/2000/svg"
   xmlns:svg="http://www.w3.org/2000/svg"><sodipodi:namedview
     id="namedview1"
     pagecolor="#ffffff"
     bordercolor="#000000"
     borderopacity="0.25"
     inkscape:showpageshadow="2"
     inkscape:pageopacity="0.0"
     inkscape:pagecheckerboard="0"
     inkscape:deskcolor="#d1d1d1"
     inkscape:document-units="mm"
     inkscape:zoom="4.0970529"
     inkscape:cx="25.994295"
     inkscape:cy="18.42788"
     inkscape:window-width="1920"
     inkscape:window-height="1009"
     inkscape:window-x="-8"
     inkscape:window-y="-8"
     inkscape:window-maximized="1"
     inkscape:current-layer="layer1" /><defs
     id="defs1"><clipPath
       clipPathUnits="userSpaceOnUse"
       id="clipPath1995"><path
         d="M 0,2.4414063e-4 H 2475 V 3503.1252 H 0 Z"
         clip-rule="evenodd"
         id="path1993" /></clipPath><clipPath
       clipPathUnits="userSpaceOnUse"
       id="clipPath143"><path
         d="M 0,512 H 512 V 0 H 0 Z"
         id="path141" /></clipPath></defs><g
     inkscape:label="Layer 1"
     inkscape:groupmode="layer"
     id="layer1"
     transform="translate(-3.6723185,-16.981719)"><g
       id="g139"
       clip-path="url(#clipPath143)"
       transform="matrix(0.03165432,0,0,-0.03165432,3.6723185,32.81608)"
       style="fill:none;fill-opacity:1;stroke:#fec80f;stroke-opacity:1"><g
         id="g145"
         transform="translate(118.6699,307.1802)"
         style="fill:none;fill-opacity:1;stroke:#fec80f;stroke-opacity:1"><path
           d="m 0,0 c -29.63,1.35 -56.42,21.28 -65.11,51.37 -10.9,37.76 10.87,77.21 48.63,88.12 37.76,10.9 77.22,-10.87 88.12,-48.63 0.53,-1.83 0.98,-3.67 1.36,-5.51"
           style="fill:none;fill-opacity:1;stroke:#fec80f;stroke-width:15;stroke-linecap:round;stroke-linejoin:round;stroke-miterlimit:10;stroke-dasharray:none;stroke-opacity:1"
           id="path147" /></g><g
         id="g149"
         transform="translate(121.937,485.0615)"
         style="fill:none;fill-opacity:1;stroke:#fec80f;stroke-opacity:1"><path
           d="M 0,0 V 7.666"
           style="fill:none;fill-opacity:1;stroke:#fec80f;stroke-width:15;stroke-linecap:round;stroke-linejoin:round;stroke-miterlimit:10;stroke-dasharray:none;stroke-opacity:1"
           id="path151" /></g><g
         id="g153"
         transform="translate(46.4385,453.7891)"
         style="fill:none;fill-opacity:1;stroke:#fec80f;stroke-opacity:1"><path
           d="M 0,0 -5.421,5.42"
           style="fill:none;fill-opacity:1;stroke:#fec80f;stroke-width:15;stroke-linecap:round;stroke-linejoin:round;stroke-miterlimit:10;stroke-dasharray:none;stroke-opacity:1"
           id="path155" /></g><g
         id="g157"
         transform="translate(15.1655,378.29)"
         style="fill:none;fill-opacity:1;stroke:#fec80f;stroke-opacity:1"><path
           d="M 0,0 H -7.666"
           style="fill:none;fill-opacity:1;stroke:#fec80f;stroke-width:15;stroke-linecap:round;stroke-linejoin:round;stroke-miterlimit:10;stroke-dasharray:none;stroke-opacity:1"
           id="path159" /></g><g
         id="g161"
         transform="translate(46.4385,302.7915)"
         style="fill:none;fill-opacity:1;stroke:#fec80f;stroke-opacity:1"><path
           d="M 0,0 -5.421,-5.42"
           style="fill:none;fill-opacity:1;stroke:#fec80f;stroke-width:15;stroke-linecap:round;stroke-linejoin:round;stroke-miterlimit:10;stroke-dasharray:none;stroke-opacity:1"
           id="path163" /></g><g
         id="g165"
         transform="translate(197.4355,453.7891)"
         style="fill:none;fill-opacity:1;stroke:#fec80f;stroke-opacity:1"><path
           d="M 0,0 5.42,5.42"
           style="fill:none;fill-opacity:1;stroke:#fec80f;stroke-width:15;stroke-linecap:round;stroke-linejoin:round;stroke-miterlimit:10;stroke-dasharray:none;stroke-opacity:1"
           id="path167" /></g><g
         id="g169"
         transform="translate(118.6699,235.5498)"
         style="fill:none;fill-opacity:1;stroke:#fec80f;stroke-opacity:1"><path
           d="m 0,0 v 99.71 c 0,6.72 5.45,12.17 12.17,12.17 h 208.75 c 6.72,0 12.16,-5.45 12.16,-12.17 V -10.68"
           style="fill:none;fill-opacity:1;stroke:#fec80f;stroke-width:15;stroke-linecap:round;stroke-linejoin:round;stroke-miterlimit:10;stroke-dasharray:none;stroke-opacity:1"
           id="path171" /></g><g
         id="g173"
         transform="translate(118.6699,103.8999)"
         style="fill:none;fill-opacity:1;stroke:#fec80f;stroke-opacity:1"><path
           d="M 0,0 V 96.65"
           style="fill:none;fill-opacity:1;stroke:#fec80f;stroke-width:15;stroke-linecap:round;stroke-linejoin:round;stroke-miterlimit:10;stroke-dasharray:none;stroke-opacity:1"
           id="path175" /></g><g
         id="g177"
         transform="translate(141.1636,347.4312)"
         style="fill:none;fill-opacity:1;stroke:#fec80f;stroke-opacity:1"><path
           d="M 0,0 V 39.907 C 0,42.775 2.325,45.1 5.193,45.1 H 182.91 c 2.868,0 5.193,-2.325 5.193,-5.193 V 0"
           style="fill:none;fill-opacity:1;stroke:#fec80f;stroke-width:15;stroke-linecap:round;stroke-linejoin:round;stroke-miterlimit:10;stroke-dasharray:none;stroke-opacity:1"
           id="path179" /></g><g
         id="g181"
         transform="translate(425.1401,196.3999)"
         style="fill:none;fill-opacity:1;stroke:#fec80f;stroke-opacity:1"><path
           d="m 0,0 c 12.72,19.28 28.29,37.3 46.63,53.94 6.37,5.79 16.22,5.31 22,-1.06 C 74.42,46.51 73.94,36.65 67.57,30.87 52.67,17.34 39.83,2.84 29.13,-12.56"
           style="fill:none;fill-opacity:1;stroke:#fec80f;stroke-width:15;stroke-linecap:round;stroke-linejoin:round;stroke-miterlimit:10;stroke-dasharray:none;stroke-opacity:1"
           id="path183" /></g><g
         id="g185"
         transform="translate(192.7798,159.3198)"
         style="fill:none;fill-opacity:1;stroke:#fec80f;stroke-opacity:1"><path
           d="m 0,0 c 19.95,19.5 55.49,33.67 97.52,37.57 15.68,17.21 38.27,28 63.39,28 24.73,0 47.01,-10.47 62.66,-27.21 C 249.4,36.11 271.62,21.26 284.05,0"
           style="fill:none;fill-opacity:1;stroke:#fec80f;stroke-width:15;stroke-linecap:round;stroke-linejoin:round;stroke-miterlimit:10;stroke-dasharray:none;stroke-opacity:1"
           id="path187" /></g><g
         id="g189"
         transform="translate(186.52,103.8999)"
         style="fill:none;fill-opacity:1;stroke:#fec80f;stroke-opacity:1"><path
           d="m 0,0 c -5.23,11.71 -8.13,24.67 -8.13,38.32 v 10.87 c 0,3.44 2.79,6.23 6.23,6.23 h 302.36 c 3.45,0 6.24,-2.79 6.24,-6.23 V 38.32 C 306.7,24.67 303.8,11.71 298.57,0"
           style="fill:none;fill-opacity:1;stroke:#fec80f;stroke-width:15;stroke-linecap:round;stroke-linejoin:round;stroke-miterlimit:10;stroke-dasharray:none;stroke-opacity:1"
           id="path191" /></g><g
         id="g193"
         transform="translate(64.4204,95.5947)"
         style="fill:none;fill-opacity:1;stroke:#fec80f;stroke-opacity:1"><path
           d="m 0,0 v -22.876 c 0,-4.589 3.72,-8.31 8.309,-8.31 h 423.462 c 4.588,0 8.309,3.721 8.309,8.31 V 0 c 0,4.589 -3.721,8.309 -8.309,8.309 H 8.309 C 3.72,8.309 0,4.589 0,0 Z"
           style="fill:none;fill-opacity:1;stroke:#fec80f;stroke-width:15;stroke-linecap:round;stroke-linejoin:round;stroke-miterlimit:10;stroke-dasharray:none;stroke-opacity:1"
           id="path195" /></g><g
         id="g197"
         transform="translate(483.0601,64.4092)"
         style="fill:none;fill-opacity:1;stroke:#fec80f;stroke-opacity:1"><path
           d="m 0,0 -21.963,-39.771 c -1.829,-3.31 -5.311,-5.365 -9.092,-5.365 h -35.016"
           style="fill:none;fill-opacity:1;stroke:#fec80f;stroke-width:15;stroke-linecap:round;stroke-linejoin:round;stroke-miterlimit:10;stroke-dasharray:none;stroke-opacity:1"
           id="path199" /></g><g
         id="g201"
         transform="translate(381.9893,19.2729)"
         style="fill:none;fill-opacity:1;stroke:#fec80f;stroke-opacity:1"><path
           d="m 0,0 h -265.073 c -3.782,0 -7.264,2.055 -9.092,5.365 l -21.964,39.771"
           style="fill:none;fill-opacity:1;stroke:#fec80f;stroke-width:15;stroke-linecap:round;stroke-linejoin:round;stroke-miterlimit:10;stroke-dasharray:none;stroke-opacity:1"
           id="path203" /></g><g
         id="g205"
         transform="translate(235.2148,303.2876)"
         style="fill:none;fill-opacity:1;stroke:#fec80f;stroke-opacity:1"><path
           d="m 0,0 c -30.878,0 -55.91,-15.163 -55.91,-33.867 0,-18.704 25.032,-33.867 55.91,-33.867 30.878,0 55.91,15.163 55.91,33.867 C 55.91,-15.163 30.878,0 0,0 Z"
           style="fill:none;fill-opacity:1;stroke:#fec80f;stroke-width:15;stroke-linecap:round;stroke-linejoin:round;stroke-miterlimit:10;stroke-dasharray:none;stroke-opacity:1"
           id="path207" /></g></g></g></svg>
