<?xml version="1.0" encoding="UTF-8" standalone="no"?>
<!-- Generator: Adobe Illustrator 19.0.0, SVG Export Plug-In . SVG Version: 6.00 Build 0)  -->

<svg
   version="1.1"
   id="Capa_1"
   x="0px"
   y="0px"
   viewBox="0 0 60.457176 60.426826"
   xml:space="preserve"
   sodipodi:docname="carrot.svg"
   width="60.457176"
   height="60.426826"
   inkscape:version="1.3.2 (091e20e, 2023-11-25, custom)"
   xmlns:inkscape="http://www.inkscape.org/namespaces/inkscape"
   xmlns:sodipodi="http://sodipodi.sourceforge.net/DTD/sodipodi-0.dtd"
   xmlns="http://www.w3.org/2000/svg"
   xmlns:svg="http://www.w3.org/2000/svg"><defs
   id="defs21" /><sodipodi:namedview
   id="namedview21"
   pagecolor="#ffffff"
   bordercolor="#000000"
   borderopacity="0.25"
   inkscape:showpageshadow="2"
   inkscape:pageopacity="0.0"
   inkscape:pagecheckerboard="0"
   inkscape:deskcolor="#d1d1d1"
   inkscape:zoom="1.5878906"
   inkscape:cx="169.72202"
   inkscape:cy="160.90529"
   inkscape:window-width="1920"
   inkscape:window-height="1009"
   inkscape:window-x="-8"
   inkscape:window-y="-8"
   inkscape:window-maximized="1"
   inkscape:current-layer="Capa_1" />

<g
   id="g4"
   transform="translate(-86.278141,-95.223827)">
	<g
   id="g3">
		
	</g>
</g>
<g
   id="g22"
   transform="matrix(0.11808051,0,0,0.11808051,-1.870621e-5,-0.01524607)"
   style="fill:#fec80f;fill-opacity:1"><g
     id="g2"
     style="fill:#fec80f;fill-opacity:1">
	<g
   id="g1"
   style="fill:#fec80f;fill-opacity:1">
		<path
   d="m 293.244,218.876 c -3.909,-3.899 -10.237,-3.899 -14.146,0 -3.899,3.909 -3.899,10.237 0,14.146 3.909,3.899 10.237,3.899 14.146,0 3.899,-3.909 3.899,-10.238 0,-14.146 z"
   id="path1"
   style="fill:#fec80f;fill-opacity:1" />
	</g>
</g><path
     d="m 166.001,346.119 c -3.909,-3.899 -10.237,-3.899 -14.146,0 -3.899,3.909 -3.899,10.237 0,14.146 3.909,3.899 10.237,3.899 14.146,0 3.899,-3.909 3.899,-10.237 0,-14.146 z"
     id="path2"
     style="fill:#fec80f;fill-opacity:1" /><g
     id="g6"
     style="fill:#fec80f;fill-opacity:1">
	<g
   id="g5"
   style="fill:#fec80f;fill-opacity:1">
		<path
   d="m 504.192,122.667 c -6.452,-10.069 -15.729,-17.246 -26.387,-20.819 9.836,-18.648 7.124,-42.59 -8.91,-58.624 -15.84,-15.838 -39.753,-18.805 -58.617,-8.897 -3.571,-10.665 -10.75,-19.942 -20.819,-26.395 -32.373,-20.783 -75.664,2.335 -76.568,41.199 -0.458,19.546 -8.65,49.231 -14.853,73.988 -46.244,-18.485 -82.899,6.904 -110.664,47.76 C 141.866,237.839 77.688,326.359 38.036,393.755 1.063,456.601 -8.221,489.906 6.995,505.124 42.611,540.74 188.247,428.73 341.241,324.755 c 40.875,-27.78 66.247,-64.437 47.767,-110.676 25.851,-6.476 54.836,-14.403 73.979,-14.851 38.803,-0.901 62.023,-44.13 41.205,-76.561 z M 407.05,64.492 c 0.031,-0.056 0.062,-0.111 0.093,-0.167 9.627,-17.768 33.539,-21.037 47.613,-6.962 14.152,14.152 10.709,38.048 -6.961,47.612 -0.057,0.031 -0.112,0.063 -0.169,0.094 l -93.715,53.138 z M 332.88,49.597 c 0.546,-23.458 26.709,-37.082 45.785,-24.836 8.795,5.636 13.945,14.777 14.165,24.835 -2.677,3.754 1.484,-3.031 -55.97,98.15 -7.003,-6.002 -13.814,-11.058 -20.553,-15.259 8.266,-33.004 16.064,-61.127 16.573,-82.89 z m -2.875,258.623 c -6.242,4.242 -12.635,8.622 -19.15,13.108 l -31.752,-31.752 c -3.905,-3.904 -10.233,-3.904 -14.139,0 -3.904,3.904 -3.904,10.234 0,14.139 l 29.166,29.166 c -27.211,18.85 -55.089,38.354 -83.576,57.798 l -16.276,-16.276 c -3.904,-3.904 -10.232,-3.904 -14.139,0 -3.904,3.904 -3.904,10.234 0,14.138 l 13.573,13.573 c -36.263,24.474 -106.032,71.039 -147.071,85.591 -21.007,7.449 -25.33,3.457 -25.504,3.285 -0.176,-0.178 -4.168,-4.497 3.282,-25.506 5.42,-15.287 15.801,-36.009 30.852,-61.591 6.413,-10.901 13.514,-22.412 21.084,-34.312 l 18.956,18.956 c 3.905,3.904 10.233,3.904 14.139,0 3.904,-3.904 3.904,-10.234 0,-14.138 L 87.438,352.388 c 17.928,-27.482 37.741,-56.411 57.063,-84.32 l 35.635,35.643 c 3.903,3.903 10.233,3.907 14.139,10e-4 3.904,-3.904 3.905,-10.233 0.002,-14.138 L 156.082,251.37 c 16.167,-23.28 33.117,-47.603 47.831,-69.253 3.504,-5.156 6.968,-9.763 10.39,-13.893 l 36.525,36.517 c 3.905,3.903 10.233,3.904 14.139,-0.001 3.903,-3.905 3.902,-10.234 -0.002,-14.138 l -36.784,-36.775 c 37.314,-32.492 73.681,-13.808 108.802,21.313 52.502,52.485 51.36,93.431 -6.978,133.08 z M 462.52,179.241 c -22.57,0.529 -53.073,9.104 -82.883,16.572 -4.211,-6.751 -9.267,-13.562 -15.261,-20.553 101.525,-57.648 94.437,-53.321 98.149,-55.969 10.059,0.215 19.196,5.369 24.838,14.171 12.292,19.15 -1.441,45.234 -24.843,45.779 z"
   id="path4"
   style="fill:#fec80f;fill-opacity:1" />
	</g>
</g></g>
<g
   id="g7"
   transform="translate(-86.278141,-95.223827)">
</g>
<g
   id="g8"
   transform="translate(-86.278141,-95.223827)">
</g>
<g
   id="g9"
   transform="translate(-86.278141,-95.223827)">
</g>
<g
   id="g10"
   transform="translate(-86.278141,-95.223827)">
</g>
<g
   id="g11"
   transform="translate(-86.278141,-95.223827)">
</g>
<g
   id="g12"
   transform="translate(-86.278141,-95.223827)">
</g>
<g
   id="g13"
   transform="translate(-86.278141,-95.223827)">
</g>
<g
   id="g14"
   transform="translate(-86.278141,-95.223827)">
</g>
<g
   id="g15"
   transform="translate(-86.278141,-95.223827)">
</g>
<g
   id="g16"
   transform="translate(-86.278141,-95.223827)">
</g>
<g
   id="g17"
   transform="translate(-86.278141,-95.223827)">
</g>
<g
   id="g18"
   transform="translate(-86.278141,-95.223827)">
</g>
<g
   id="g19"
   transform="translate(-86.278141,-95.223827)">
</g>
<g
   id="g20"
   transform="translate(-86.278141,-95.223827)">
</g>
<g
   id="g21"
   transform="translate(-86.278141,-95.223827)">
</g>
</svg>
