<?xml version="1.0" encoding="UTF-8" standalone="no"?>
<svg
   xmlns:dc="http://purl.org/dc/elements/1.1/"
   xmlns:cc="http://creativecommons.org/ns#"
   xmlns:rdf="http://www.w3.org/1999/02/22-rdf-syntax-ns#"
   xmlns:svg="http://www.w3.org/2000/svg"
   xmlns="http://www.w3.org/2000/svg"
   id="svg3570"
   version="1.1"
   viewBox="0 0 10.820872 14.287499"
   height="14.287499mm"
   width="10.820872mm">
  <defs
     id="defs3564" />
  <metadata
     id="metadata3567">
    <rdf:RDF>
      <cc:Work
         rdf:about="">
        <dc:format>image/svg+xml</dc:format>
        <dc:type
           rdf:resource="http://purl.org/dc/dcmitype/StillImage" />
        <dc:title></dc:title>
      </cc:Work>
    </rdf:RDF>
  </metadata>
  <g
     transform="translate(-76.607395,-202.77053)"
     id="layer1">
    <g
       id="g1885"
       transform="matrix(0.43821612,0,0,0.44648435,76.607395,202.77053)">
      <path
         d="m 7.9060001,15.704 c 0,0 0,2.108 0,2.108 0,0.07 -0.007,0.136 -0.025,0.204001 C 7.658,18.902 5.9840002,19.591 3.9530001,19.591 1.7690001,19.591 0,18.795 0,17.812 c 0,0 0,-2.108 0,-2.108 0,0.983 1.7690001,1.777001 3.9530001,1.777001 C 5.1939998,17.481001 6.302,17.225 7.027,16.823 c 0.3720002,-0.208 0.644,-0.451 0.7800002,-0.719 0.066,-0.127 0.099,-0.262 0.099,-0.4 m 0,5.3 c 0,0.981001 -1.769,1.777 -3.953,1.777 C 1.7690001,22.781 0,21.985001 0,21.004 c 0,0 0,-2.111 0,-2.111 0,0.985 1.7690001,1.779001 3.9530001,1.779001 2.184,0 3.953,-0.795 3.953,-1.779001 0,0 0,2.111 0,2.111 m 0,3.252001 c 0,0.982999 -1.769,1.778999 -3.953,1.778999 C 1.7690001,26.035 0,25.239 0,24.256001 c 0,0 0,-2.108 0,-2.108 0,0.980999 1.7690001,1.776998 3.9530001,1.776998 2.184,0 3.953,-0.795999 3.953,-1.776998 0,0 0,2.108 0,2.108 M 16.049999,11.346 c 0,0 0,2.168 0,2.168 0,1.008 -1.820999,1.828 -4.064999,1.828 -1.611,0 -3.0750002,-0.576 -3.0750002,-0.576 0,0 0.031,-0.6 0.031,-0.668 0,-0.557 -0.3950005,-1.003 -1.02,-1.336 0,0 0,-1.416 0,-1.416 0,1.01 1.8200002,1.828 4.0640002,1.828 2.244,0 4.064999,-0.819 4.064999,-1.828 m -9.99e-4,3.28 c 0,0 0,1.936 0,1.936 -2.212,0.110001 -4.29,0.806999 -4.558,2.045 -1.038,-0.066 -2.5500002,-0.774 -2.5500002,-0.854 0,0 0,-1.918 0,-1.918 0.7440004,0.377999 1.8320002,0.617999 3.0440002,0.617999 2.244,0 4.064,-0.819999 4.064,-1.826999 m 4.927999,8.298 c 0,1.083 -1.953998,1.962 -4.365999,1.962 -2.411,0 -4.363,-0.879 -4.363,-1.962 0,0 0,-2.331 0,-2.331 0,1.086001 1.952,1.963999 4.363,1.963999 2.412001,0 4.365999,-0.879 4.365999,-1.963999 0,0 0,2.331 0,2.331 m 0,3.521 c 0,1.083999 -1.953998,1.964 -4.365999,1.964 -2.411,0 -4.363,-0.880001 -4.363,-1.964 0,0 0,-2.327999 0,-2.327999 0,1.083 1.952,1.962999 4.363,1.962999 2.412001,0 4.365999,-0.879999 4.365999,-1.962999 0,0 0,2.327999 0,2.327999 m 0,3.592001 C 20.976999,31.120001 19.023001,32 16.611,32 14.2,32 12.248,31.120001 12.248,30.037001 c 0,0 0,-2.329001 0,-2.329001 0,1.082001 1.952,1.963 4.363,1.963 2.412001,0 4.365999,-0.880999 4.365999,-1.963 0,0 0,2.329001 0,2.329001 M 13.432,0 C 7.2150002,0 2.1730001,4.9720001 2.1730001,11.107 c 0,0.324 0.014,0.644 0.042,0.962 C 2.7119999,11.983 3.24,11.937 3.77,11.928001 c 0.002,0 0.002,0 0.002,0 0.059,-0.002 0.1210003,-0.002 0.1820002,-0.002 1.125,0 2.2550001,0.175 3.105,0.515 0,-0.116 0,-0.815 0,-1.499 0,0 0,-1.31 0,-1.31 0,-1.4469996 2.4779997,-2.2030001 4.9280008,-2.2030001 2.447999,0 4.925999,0.7560005 4.925999,2.2030001 0,0 0,1.282 0,1.282 0,1.104 0,2.491 0,2.491 0,0 0,3.143 0,3.143 0.05,0 0.1,0.001 0.150999,0.003 2.089001,0.064 4.115002,0.643999 4.681002,1.708999 0.041,0.075 0.075,0.152001 0.1,0.233 1.771,-1.962999 2.848002,-4.55 2.848002,-7.386 C 24.693001,4.9720001 19.653,0 13.432,0 M 7.0500002,13.519 c 0,0 0,-0.002 0,-0.002 -0.007,-0.003 -0.014,-0.008 -0.023,-0.013 C 6.2639999,13.099 5.1059999,12.89 3.954,12.89 c -0.052,0 -0.105,0 -0.1589999,0 -0.001,0 -0.001,0 -0.001,0 C 1.882,12.924 0,13.529 0,14.658 c 0,1.162 1.988,1.768001 3.954,1.768001 1.1519999,0 2.3099999,-0.208001 3.073,-0.614001 0.082,-0.043 0.1579999,-0.089 0.229,-0.136 0.238,-0.157 0.4200001,-0.339 0.5289998,-0.544 0.079,-0.144999 0.1220003,-0.305 0.1220003,-0.474 -0.001,-0.475 -0.3309999,-0.854999 -0.8569999,-1.139 M 3.9530001,15.55 C 1.954,15.55 0.87700003,14.917 0.87700003,14.658 c 0,-0.258 1.07699997,-0.893 3.07600007,-0.893 1.407,0 2.3579998,0.315 2.7979998,0.591 0.185,0.115 0.2800002,0.226 0.2800002,0.302 0,0.035 -0.019,0.074 -0.055,0.119 -0.2450002,0.297 -1.287,0.773 -3.023,0.773 M 11.985,12.107 c -2.0190004,0 -4.064,-0.625 -4.064,-1.818 0,-1.1930003 2.0449996,-1.8169999 4.064,-1.8169999 2.02,0 4.066001,0.6230002 4.066001,1.8169999 0,1.193 -2.047001,1.818 -4.066001,1.818 m 0,-2.7370001 c -2.0540002,0 -3.1630005,0.6520001 -3.1630005,0.9180001 0,0.266 1.1090003,0.917 3.1630005,0.917 2.054,0 3.164,-0.651 3.164,-0.917 0,-0.266 -1.11,-0.9180001 -3.164,-0.9180001 m 8.859,9.5520011 C 20.370001,18.032 18.676001,17.546 16.929001,17.493999 c -0.106001,-0.006 -0.212002,-0.006 -0.317001,-0.006 0,0 -0.082,0 -0.082,0 -2.019,0.016 -4.037,0.610001 -4.262,1.739 -0.014,0.069 -0.022,0.139 -0.022,0.213002 0,1.281 2.197,1.951999 4.366,1.951999 2.17,0 4.364,-0.670999 4.364,-1.951999 0,-0.186001 -0.046,-0.359002 -0.132,-0.518 m -4.232,1.502998 c -2.207,0 -3.399,-0.698999 -3.399,-0.984998 0,-0.061 0.054,-0.140002 0.162,-0.229001 0.332,-0.274999 1.182,-0.630001 2.497,-0.729999 0.231001,-0.017 0.478,-0.028 0.74,-0.028 0.107999,0 0.214,0.003 0.317001,0.007 0.137998,0.003 0.269998,0.012 0.399999,0.02 1.747,0.128 2.681,0.708 2.681,0.961 0,0.285 -1.191,0.983999 -3.398,0.983999"
         style="fill:#fec80f;fill-opacity:1;fill-rule:evenodd;stroke:none"
         id="path1887" />
    </g>
  </g>
</svg>
