<?xml version="1.0" encoding="UTF-8" standalone="no"?>
<svg
   xmlns:dc="http://purl.org/dc/elements/1.1/"
   xmlns:cc="http://creativecommons.org/ns#"
   xmlns:rdf="http://www.w3.org/1999/02/22-rdf-syntax-ns#"
   xmlns:svg="http://www.w3.org/2000/svg"
   xmlns="http://www.w3.org/2000/svg"
   xmlns:sodipodi="http://sodipodi.sourceforge.net/DTD/sodipodi-0.dtd"
   xmlns:inkscape="http://www.inkscape.org/namespaces/inkscape"
   sodipodi:docname="opleiding.svg"
   inkscape:version="1.0 (4035a4fb49, 2020-05-01)"
   id="svg4752"
   version="1.1"
   viewBox="0 0 8.7253208 14.287498"
   height="14.287498mm"
   width="8.7253208mm">
  <defs
     id="defs4746">
    <clipPath
       clipPathUnits="userSpaceOnUse"
       id="clipPath1995">
      <path
         d="M 0,2.4414063e-4 H 2475 V 3503.1252 H 0 Z"
         clip-rule="evenodd"
         id="path1993" />
    </clipPath>
  </defs>
  <sodipodi:namedview
     inkscape:window-maximized="0"
     inkscape:window-y="0"
     inkscape:window-x="208"
     inkscape:window-height="1009"
     inkscape:window-width="1375"
     showgrid="false"
     inkscape:document-rotation="0"
     inkscape:current-layer="layer1"
     inkscape:document-units="mm"
     inkscape:cy="98.428557"
     inkscape:cx="85.06022"
     inkscape:zoom="0.35"
     inkscape:pageshadow="2"
     inkscape:pageopacity="0.0"
     borderopacity="1.0"
     bordercolor="#666666"
     pagecolor="#ffffff"
     id="base" />
  <metadata
     id="metadata4749">
    <rdf:RDF>
      <cc:Work
         rdf:about="">
        <dc:format>image/svg+xml</dc:format>
        <dc:type
           rdf:resource="http://purl.org/dc/dcmitype/StillImage" />
        <dc:title></dc:title>
      </cc:Work>
    </rdf:RDF>
  </metadata>
  <g
     transform="translate(-83.327817,-122.12411)"
     id="layer1"
     inkscape:groupmode="layer"
     inkscape:label="Layer 1">
    <g
       transform="matrix(0.08466666,0,0,0.08466666,76.465187,-76.048807)"
       id="g1989">
      <g
         id="g1991"
         clip-path="url(#clipPath1995)">
        <g
           id="g1997"
           transform="matrix(5.1757813,0,0,5.2734375,81.054688,2340.6252)">
          <path
             d="m 0,0 c 0,0 0,27.591 0,27.591 0,0 3.724,0 3.724,0 0,0 0,-2.278 0,-2.278 -0.8039999,-0.633 -1.322,-1.612 -1.322,-2.715 0,-1.907999 1.5470001,-3.455 3.4549999,-3.455 1.908,0 3.4550004,1.547001 3.4550004,3.455 0,1.103 -0.5180006,2.082 -1.3220005,2.715 0,0 0,2.278 0,2.278 0,0 11.9209992,0 11.9209992,0 0,0 0,-27.591 0,-27.591 C 19.910999,0 0,0 0,0 m 16.497999,16.409 c 0,0 -12.799999,0 -12.799999,0 0,0 0,-0.675 0,-0.675 0,0 12.799999,0 12.799999,0 0,0 0,0.675 0,0.675 m 0,-3.129 c 0,0 -12.799999,0 -12.799999,0 0,0 0,-0.675 0,-0.675 0,0 12.799999,0 12.799999,0 0,0 0,0.675 0,0.675 m 0,-2.844 c 0,0 -12.799999,0 -12.799999,0 0,0 0,-0.6759998 0,-0.6759998 0,0 12.799999,0 12.799999,0 0,0 0,0.6759998 0,0.6759998 m 0,-3.1289998 c 0,0 -12.799999,0 -12.799999,0 0,0 0,-0.6760002 0,-0.6760002 0,0 12.799999,0 12.799999,0 0,0 0,0.6760002 0,0.6760002 m 0,-2.8450003 c 0,0 -12.799999,0 -12.799999,0 0,0 0,-0.675 0,-0.675 0,0 12.799999,0 12.799999,0 0,0 0,0.675 0,0.675 M 7.9910002,32 c 0,0 -2.1340003,-2.570999 -2.1340003,-2.570999 C 5.8569999,29.429001 3.724,32 3.724,32 c 0,0 0,-4.409 0,-4.409 0,0 4.2670002,0 4.2670002,0 0,0 0,4.409 0,4.409"
             style="fill:#fec80f;fill-opacity:1;fill-rule:evenodd;stroke:none"
             id="path1999" />
        </g>
      </g>
    </g>
  </g>
</svg>
