<?xml version="1.0" encoding="UTF-8" standalone="no"?>
<svg
   xmlns:dc="http://purl.org/dc/elements/1.1/"
   xmlns:cc="http://creativecommons.org/ns#"
   xmlns:rdf="http://www.w3.org/1999/02/22-rdf-syntax-ns#"
   xmlns:svg="http://www.w3.org/2000/svg"
   xmlns="http://www.w3.org/2000/svg"
   xmlns:sodipodi="http://sodipodi.sourceforge.net/DTD/sodipodi-0.dtd"
   xmlns:inkscape="http://www.inkscape.org/namespaces/inkscape"
   sodipodi:docname="piggyback.svg"
   inkscape:version="1.0 (4035a4fb49, 2020-05-01)"
   id="svg12822"
   version="1.1"
   viewBox="0 0 13.469738 14.816666"
   height="14.816666mm"
   width="13.469738mm">
  <defs
     id="defs12816">
    <clipPath
       clipPathUnits="userSpaceOnUse"
       id="clipPath9329">
      <path
         d="M 0,4.8828125e-4 H 2475 V 3503.1255 H 0 Z"
         clip-rule="evenodd"
         id="path9327" />
    </clipPath>
  </defs>
  <sodipodi:namedview
     inkscape:window-maximized="0"
     inkscape:window-y="0"
     inkscape:window-x="208"
     inkscape:window-height="1009"
     inkscape:window-width="1375"
     showgrid="false"
     inkscape:document-rotation="0"
     inkscape:current-layer="layer1"
     inkscape:document-units="mm"
     inkscape:cy="-52.000003"
     inkscape:cx="71.168909"
     inkscape:zoom="0.35"
     inkscape:pageshadow="2"
     inkscape:pageopacity="0.0"
     borderopacity="1.0"
     bordercolor="#666666"
     pagecolor="#ffffff"
     id="base" />
  <metadata
     id="metadata12819">
    <rdf:RDF>
      <cc:Work
         rdf:about="">
        <dc:format>image/svg+xml</dc:format>
        <dc:type
           rdf:resource="http://purl.org/dc/dcmitype/StillImage" />
        <dc:title></dc:title>
      </cc:Work>
    </rdf:RDF>
  </metadata>
  <g
     transform="translate(-87.003226,-161.925)"
     id="layer1"
     inkscape:groupmode="layer"
     inkscape:label="Layer 1">
    <g
       transform="matrix(0.08466666,0,0,0.08466666,-6.8577081,-72.231273)"
       id="g9323">
      <g
         id="g9325"
         clip-path="url(#clipPath9329)">
        <g
           id="g9331"
           transform="matrix(5.46875,0,0,5.46875,1108.5938,2765.6255)">
          <path
             d="m 14.545,0 c -1.602,0 -2.909,1.307 -2.909,2.9089999 0,1.6020003 1.307,2.8980003 2.909,2.8980003 1.603001,0 2.91,-1.296 2.91,-2.8980003 C 17.455,1.307 16.148001,0 14.545,0 M 12.091,5.7620001 C 11.015,5.9000001 10.046,6.619 9.75,7.625 c -0.3940001,1.7910004 -0.7449999,3.632 -1.0799999,5.17 -0.1330004,1.079 -0.073,1.901 0.1820001,2.546 0.2550002,0.644 0.7179995,1.085001 1.2839998,1.352001 0.256,0.119999 0.525,0.215 0.819,0.283998 -0.523,0.039 -1.0459996,0.08 -1.5690003,0.114001 C 5.5190001,17.864 4.2610002,22.172001 6.25,24.58 c 0.586,0.771999 1.1680002,1.552 1.75,2.329 0,0 -5.8180001,0 -5.8180001,0 C 1.515,26.909 0.95300007,27.247 0.57999998,27.726999 0.206,28.207001 0,28.827999 0,29.455 0,30.080999 0.206,30.691 0.57999998,31.17 0.95300007,31.65 1.515,32 2.1819999,32 c 0,0 11.6360001,0 11.6360001,0 1.212,0 2.021,-0.665001 2.341,-1.466 0.32,-0.801 0.225001,-1.713001 -0.216,-2.375 -0.958,-1.290001 -1.931,-2.576999 -2.898,-3.864 0,0 5.103001,-0.466 5.103001,-0.466 0,0 0.635999,4.682 0.635999,4.682 0.017,0.123001 0.102,0.235 0.216,0.284 2.249001,1.020001 4.503,2.037001 6.75,3.056999 0.791,0.392 1.74,-0.056 2.091,-0.875 C 28.267,29.916 27.738001,28.948 27.056999,28.5 25.302,27.708 23.511,26.948999 21.739,26.181999 c 0,0 -0.375,-2.863998 -0.375,-2.863998 C 21.712,23.084999 21.976999,22.743999 22.148001,22.375 22.455,21.709 22.545,20.948999 22.545,20.363001 c 0,-0.848002 -0.395,-1.816 -1.034,-2.602001 -0.638001,-0.786 -1.546999,-1.397999 -2.602,-1.397999 -0.236999,0.015 -0.478,0.038 -0.715999,0.057 0.046,-0.139999 0.108,-0.287001 0.158998,-0.42 0.228001,-1.218 -0.654998,-2.182 -1.625,-2.182 0,0 -2.510999,-0.023 -2.510999,-0.023 0,0 0.511,-3.534 0.511,-3.534 1.404001,0.889 2.794999,1.826 4.204999,2.693001 C 19.348,13.125 19.753,13.12 20.056999,12.977 20.355,12.836 20.545,12.589 20.636,12.329001 20.782,12.003 20.712999,11.643 20.591,11.34 20.448999,11.05 20.212,10.81 19.931999,10.636 18.239,9.5369997 16.538,8.4460001 14.841,7.3520002 14.263,6.1170001 13.341,5.632 12.091,5.7620001 m 0.966,0.7950001 c -0.509,0.072 -0.871,0.4549999 -1.012,0.8629999 -0.179,0.6940002 0.235,1.2869997 0.716,1.5690002 0.424,0.2810002 0.856,0.5539999 1.284,0.8289995 0,0 -0.602,4.2960002 -0.602,4.2960002 -0.026,0.205 0.157,0.41 0.364,0.409 0,0 2.919999,0.023 2.919999,0.023 0.480002,0 1.048001,0.481 0.909001,1.295 -0.657,1.888 -1.365,3.77 -2,5.659 -0.042,0.169001 -0.152,0.27 -0.318,0.341 -0.166,0.071 -0.392,0.079 -0.591,0.023 -0.199,-0.056 -0.386,-0.187 -0.5,-0.340999 -0.114,-0.154002 -0.156,-0.309 -0.113,-0.477001 0.25,-1.445 0.508,-2.896 0.716,-4.137 -0.084,-0.298 -0.214,-0.277999 -0.41,-0.363001 -1.665,-0.089 -3.107,-0.095 -3.965,-0.5 C 10.019,15.84 9.724,15.56 9.5340004,15.08 9.3439999,14.6 9.2729998,13.893 9.3979998,12.887 9.7530003,11.194 10.06,9.3990002 10.455,7.796 10.664,7.1490002 11.401,6.619 12.193,6.5 c 0.284,-0.057 0.605,0.005 0.864,0.057 m 12.034,4.716 c -2.205,0 -4,1.795 -4,4 0,2.205001 1.795,4.000001 4,4.000001 2.205,0 4,-1.795 4,-4.000001 0,-2.205 -1.795,-4 -4,-4 m -5.625,9.091 c 0.538999,-0.021 0.833999,0.417 0.92,0.987999 0.226,1.702002 0.434,3.418001 0.648,5.125 0.017,0.124001 0.102,0.235001 0.216,0.285 0,0 5.409,2.352001 5.409,2.352001 0.442,0.291001 0.8,0.845999 0.511,1.579001 -0.177999,0.429998 -0.733999,0.674 -1.101999,0.5 C 23.878,30.204 21.681,29.216 19.489,28.226999 c 0,0 -0.944,-6.875 -0.944,-6.875 C 18.513,20.784 18.948999,20.375 19.466,20.364"
             style="fill:#fec80f;fill-opacity:1;fill-rule:evenodd;stroke:none"
             id="path9333" />
        </g>
      </g>
    </g>
  </g>
</svg>
