<?xml version="1.0" encoding="UTF-8" standalone="no"?>
<svg
   id="Layer_3"
   enable-background="new 0 0 64 64"
   height="51.37521"
   viewBox="0 0 6.4231243 6.4219012"
   width="51.384995"
   version="1.1"
   sodipodi:docname="pot.svg"
   xml:space="preserve"
   inkscape:version="1.3.2 (091e20e, 2023-11-25, custom)"
   xmlns:inkscape="http://www.inkscape.org/namespaces/inkscape"
   xmlns:sodipodi="http://sodipodi.sourceforge.net/DTD/sodipodi-0.dtd"
   xmlns="http://www.w3.org/2000/svg"
   xmlns:svg="http://www.w3.org/2000/svg"><defs
     id="defs4" /><sodipodi:namedview
     id="namedview4"
     pagecolor="#ffffff"
     bordercolor="#000000"
     borderopacity="0.25"
     inkscape:showpageshadow="2"
     inkscape:pageopacity="0.0"
     inkscape:pagecheckerboard="0"
     inkscape:deskcolor="#d1d1d1"
     inkscape:zoom="1.5878906"
     inkscape:cx="244.03444"
     inkscape:cy="183.57688"
     inkscape:window-width="1920"
     inkscape:window-height="1009"
     inkscape:window-x="-8"
     inkscape:window-y="-8"
     inkscape:window-maximized="1"
     inkscape:current-layer="Layer_3" /><g
     id="g4"
     transform="matrix(0.10359878,0,0,0.10359878,-0.10359878,-0.10482202)"
     style="fill:#fec80f;fill-opacity:1"><path
       d="m 63,39 c 0,-1.654 -1.346,-3 -3,-3 h -4 c -1.654,0 -3,1.346 -3,3 0,1.302 0.839,2.402 2,2.816 V 42 c 0,0.552 -0.449,1 -1,1 h -2 v -6.142 c 1.72,-0.447 3,-1.999 3,-3.858 0,-2.002 -1.483,-3.649 -3.405,-3.94 1.349,-3.641 -1.03,-9.85 -6.108,-15.908 l 1.668,-1.668 c 0.406,0.193 0.843,0.3 1.284,0.3 0.769,0 1.537,-0.292 2.122,-0.877 1.169,-1.17 1.169,-3.073 0,-4.243 L 46.318,2.421 c -1.17,-1.17 -3.073,-1.168 -4.243,0 -0.92,0.921 -1.104,2.291 -0.576,3.405 L 39.831,7.494 C 32.726,1.54 25.407,-0.708 22.277,2.423 c -0.391,0.391 -0.391,1.023 0,1.414 L 47.44,29 H 13 c -2.206,0 -4,1.794 -4,4 0,1.859 1.28,3.411 3,3.858 V 43 H 10 C 9.449,43 9,42.552 9,42 V 41.816 C 10.161,41.402 11,40.302 11,39 11,37.346 9.654,36 8,36 H 4 c -1.654,0 -3,1.346 -3,3 0,1.302 0.839,2.402 2,2.816 V 43 c 0,3.309 2.691,6 6,6 h 3 v 7 c 0,3.859 3.14,7 7,7 h 26 c 3.86,0 7,-3.141 7,-7 v -7 h 3 c 3.309,0 6,-2.691 6,-6 V 41.816 C 62.161,41.402 63,40.302 63,39 Z M 43.49,3.837 c 0.389,-0.39 1.024,-0.391 1.415,0 l 4.242,4.243 c 0.39,0.39 0.39,1.024 0,1.414 -0.391,0.391 -1.026,0.39 -1.415,0 L 43.49,5.251 c -0.39,-0.39 -0.39,-1.024 0,-1.414 z m -0.707,3.536 2.829,2.829 -1.446,1.445 C 43.721,11.162 43.261,10.68 42.783,10.202 42.305,9.724 41.822,9.264 41.338,8.819 Z m -1.414,4.242 c 5.521,5.521 9.911,13.329 8.351,16.836 L 24.532,3.264 c 3.509,-1.559 11.316,2.83 16.837,8.351 z M 11,33 c 0,-1.103 0.897,-2 2,-2 h 38 c 1.103,0 2,0.897 2,2 0,1.103 -0.897,2 -2,2 H 13 c -1.103,0 -2,-0.897 -2,-2 z m -7,5 h 4 c 0.551,0 1,0.448 1,1 0,0.552 -0.449,1 -1,1 H 4 C 3.449,40 3,39.552 3,39 3,38.448 3.449,38 4,38 Z m 5,9 C 6.794,47 5,45.206 5,43 v -1 h 2 c 0,1.654 1.346,3 3,3 h 2 v 2 z M 45,61 H 19 c -2.757,0 -5,-2.243 -5,-5 V 37 h 36 v 19 c 0,2.757 -2.243,5 -5,5 z M 55,47 h -3 v -2 h 2 c 1.654,0 3,-1.346 3,-3 h 2 v 1 c 0,2.206 -1.794,4 -4,4 z m 5,-7 h -4 c -0.551,0 -1,-0.448 -1,-1 0,-0.552 0.449,-1 1,-1 h 4 c 0.551,0 1,0.448 1,1 0,0.552 -0.449,1 -1,1 z"
       id="path1"
       style="fill:#fec80f;fill-opacity:1" /><path
       d="m 47,56 c 0,1.103 -0.897,2 -2,2 v 2 c 2.206,0 4,-1.794 4,-4 V 42 h -2 z"
       id="path2"
       style="fill:#fec80f;fill-opacity:1" /><path
       d="M 17.232,20.646 C 17.728,21.142 18,21.8 18,22.5 c 0,0.7 -0.272,1.358 -0.768,1.854 l -1.939,1.939 1.414,1.414 1.939,-1.939 C 19.52,24.895 20,23.734 20,22.5 20,21.266 19.52,20.105 18.646,19.232 L 17.767,18.353 C 17.272,17.858 17,17.2 17,16.5 c 0,-0.7 0.272,-1.358 0.768,-1.854 l 1.939,-1.939 -1.414,-1.414 -1.939,1.939 C 15.48,14.105 15,15.266 15,16.5 c 0,1.234 0.48,2.395 1.354,3.268 z"
       id="path3"
       style="fill:#fec80f;fill-opacity:1" /><path
       d="m 28.707,12.707 -1.414,-1.414 -1.939,1.939 C 24.48,14.105 24,15.266 24,16.5 c 0,1.234 0.48,2.395 1.354,3.268 l 0.879,0.879 C 26.728,21.142 27,21.8 27,22.5 c 0,0.7 -0.272,1.358 -0.768,1.854 l -1.939,1.939 1.414,1.414 1.939,-1.939 C 28.52,24.895 29,23.734 29,22.5 29,21.266 28.52,20.105 27.646,19.232 L 26.767,18.353 C 26.272,17.858 26,17.2 26,16.5 c 0,-0.7 0.272,-1.358 0.768,-1.854 z"
       id="path4"
       style="fill:#fec80f;fill-opacity:1" /></g></svg>
