<?xml version="1.0" encoding="UTF-8" standalone="no"?>
<svg
   xmlns:dc="http://purl.org/dc/elements/1.1/"
   xmlns:cc="http://creativecommons.org/ns#"
   xmlns:rdf="http://www.w3.org/1999/02/22-rdf-syntax-ns#"
   xmlns:svg="http://www.w3.org/2000/svg"
   xmlns="http://www.w3.org/2000/svg"
   xmlns:sodipodi="http://sodipodi.sourceforge.net/DTD/sodipodi-0.dtd"
   xmlns:inkscape="http://www.inkscape.org/namespaces/inkscape"
   sodipodi:docname="schommel.svg"
   inkscape:version="1.0 (4035a4fb49, 2020-05-01)"
   id="svg12223"
   version="1.1"
   viewBox="0 0 14.816666 13.276196"
   height="13.276196mm"
   width="14.816666mm">
  <defs
     id="defs12217">
    <clipPath
       clipPathUnits="userSpaceOnUse"
       id="clipPath9671">
      <path
         d="M 0,4.8828125e-4 H 2475 V 3503.1255 H 0 Z"
         clip-rule="evenodd"
         id="path9669" />
    </clipPath>
  </defs>
  <sodipodi:namedview
     inkscape:window-maximized="0"
     inkscape:window-y="0"
     inkscape:window-x="182"
     inkscape:window-height="1009"
     inkscape:window-width="1375"
     showgrid="false"
     inkscape:document-rotation="0"
     inkscape:current-layer="layer1"
     inkscape:document-units="mm"
     inkscape:cy="96.517446"
     inkscape:cx="-12.000004"
     inkscape:zoom="0.35"
     inkscape:pageshadow="2"
     inkscape:pageopacity="0.0"
     borderopacity="1.0"
     bordercolor="#666666"
     pagecolor="#ffffff"
     id="base" />
  <metadata
     id="metadata12220">
    <rdf:RDF>
      <cc:Work
         rdf:about="">
        <dc:format>image/svg+xml</dc:format>
        <dc:type
           rdf:resource="http://purl.org/dc/dcmitype/StillImage" />
        <dc:title></dc:title>
      </cc:Work>
    </rdf:RDF>
  </metadata>
  <g
     transform="translate(-109.00833,-122.62976)"
     id="layer1"
     inkscape:groupmode="layer"
     inkscape:label="Layer 1">
    <g
       transform="matrix(0.08466666,0,0,0.08466666,11.377092,-75.97313)"
       id="g9665">
      <g
         id="g9667"
         clip-path="url(#clipPath9671)">
        <g
           id="g9673"
           transform="matrix(5.46875,0,0,5.46875,1153.125,2345.7036)">
          <path
             d="m 22.857,2.2119999 c 0,0 6.801001,26.4610001 6.801001,26.4610001 0,0 2.341999,-0.011 2.341999,-0.011 C 32,28.662001 24.625,0 24.625,0 24.625,0 7.8119998,0 7.8119998,0 7.8119998,0 0,28.412001 0,28.412001 c 0,0 2.4089999,0.069 2.4089999,0.069 0,0 7.145,-26.2690011 7.145,-26.2690011 0,0 0.9520001,0 0.9520001,0 0,0 0,18.8069991 0,18.8069991 0,0 -2.5809998,0 -2.5809998,0 0,0 0,4.056002 0,4.056002 0,0 15.8559998,0 15.8559998,0 0,0 0,-4.056002 0,-4.056002 0,0 -2.580999,0 -2.580999,0 0,0 0,-18.8069991 0,-18.8069991 0,0 1.656999,0 1.656999,0 M 18.988001,21.018999 c 0,0 -6.269001,0 -6.269001,0 0,0 0,-18.8069991 0,-18.8069991 0,0 6.269001,0 6.269001,0 0,0 0,18.8069991 0,18.8069991"
             style="fill:#fec80f;fill-opacity:1;fill-rule:evenodd;stroke:none"
             id="path9675" />
        </g>
      </g>
    </g>
  </g>
</svg>
