<?xml version="1.0" encoding="UTF-8" standalone="no"?>
<svg
   xmlns:dc="http://purl.org/dc/elements/1.1/"
   xmlns:cc="http://creativecommons.org/ns#"
   xmlns:rdf="http://www.w3.org/1999/02/22-rdf-syntax-ns#"
   xmlns:svg="http://www.w3.org/2000/svg"
   xmlns="http://www.w3.org/2000/svg"
   id="svg7182"
   version="1.1"
   viewBox="0 0 17.368221 17.727057"
   height="17.727057mm"
   width="17.368221mm">
  <defs
     id="defs7176" />
  <metadata
     id="metadata7179">
    <rdf:RDF>
      <cc:Work
         rdf:about="">
        <dc:format>image/svg+xml</dc:format>
        <dc:type
           rdf:resource="http://purl.org/dc/dcmitype/StillImage" />
        <dc:title></dc:title>
      </cc:Work>
    </rdf:RDF>
  </metadata>
  <g
     transform="translate(-106.97661,-95.457902)"
     id="layer1">
    <g
       id="g2213"
       transform="matrix(0.55397141,0,0,0.55397141,106.97647,95.45794)">
      <path
         d="m 0.67199999,27.110001 c 0,0 27.19300001,-15.645001 27.19300001,-15.645001 0.745001,-0.373 1.615,-0.125 2.111,0.496 0,0 1.118,2.111 1.118,2.111 0.497,0.745 0.247999,1.614 -0.497,1.987 0,0 -27.193,15.77 -27.193,15.77 -0.746,0.372 -1.615,0.123999 -1.9869999,-0.621 0,0 -1.24200009,-1.986999 -1.24200009,-1.986999 C -0.197,28.476 0.051,27.607 0.67199999,27.110001 M 26.996,9.7259998 C 26.872,10.347 25.879,10.099 26.127001,9.4779997 27.99,2.773 21.905001,7.243 21.533001,3.0209999 21.284,0.537 23.644001,-0.704 23.892,0.41299999 24.016001,0.91000003 21.657,1.9030001 22.774,3.642 c 0.372999,0.3719999 0.870001,0.7450001 1.739,0.621 4.097001,-0.125 2.483,5.4629998 2.483,5.4629998 M 25.134001,8.6090002 c 0.123998,0.6209993 -0.745001,0.8689995 -0.994002,0.2480002 -0.744999,-1.1180006 -2.111,-0.9930006 -2.111,-1.4900003 0,-0.2480001 0.125,-0.4970002 0.373001,-0.4970002 1.116999,-0.2480002 2.359,0.7449999 2.732001,1.7390003 M 28.983,15.811 c -0.744999,0.248 -1.49,-0.497 -1.365999,-1.242 -0.621001,-0.124 -0.993,-0.621 -0.993,-1.242 0,0 -18.5020013,10.679001 -18.5020013,10.679001 0,0 1.738,2.979999 1.738,2.979999 0,0 19.1230003,-11.175 19.1230003,-11.175"
         style="fill:#fec80f;fill-opacity:1;fill-rule:evenodd;stroke:none"
         id="path2215" />
    </g>
  </g>
</svg>
