<?xml version="1.0" encoding="UTF-8" standalone="no"?>
<!-- Created with Inkscape (http://www.inkscape.org/) -->

<svg
   width="15.900293mm"
   height="15.900386mm"
   viewBox="0 0 15.900293 15.900386"
   version="1.1"
   id="svg1"
   xml:space="preserve"
   inkscape:version="1.3.2 (091e20e, 2023-11-25, custom)"
   sodipodi:docname="snack.svg"
   xmlns:inkscape="http://www.inkscape.org/namespaces/inkscape"
   xmlns:sodipodi="http://sodipodi.sourceforge.net/DTD/sodipodi-0.dtd"
   xmlns="http://www.w3.org/2000/svg"
   xmlns:svg="http://www.w3.org/2000/svg"><sodipodi:namedview
     id="namedview1"
     pagecolor="#ffffff"
     bordercolor="#000000"
     borderopacity="0.25"
     inkscape:showpageshadow="2"
     inkscape:pageopacity="0.0"
     inkscape:pagecheckerboard="0"
     inkscape:deskcolor="#d1d1d1"
     inkscape:document-units="mm"
     inkscape:zoom="5.7941077"
     inkscape:cx="40.989918"
     inkscape:cy="21.487346"
     inkscape:window-width="1920"
     inkscape:window-height="1009"
     inkscape:window-x="-8"
     inkscape:window-y="-8"
     inkscape:window-maximized="1"
     inkscape:current-layer="g1" /><defs
     id="defs1" /><g
     inkscape:label="Layer 1"
     inkscape:groupmode="layer"
     id="layer1"
     transform="translate(-0.63472367,-19.630378)"><g
       id="g1"
       transform="matrix(0.02489294,0,0,0.02489294,0.63260875,19.630399)"
       style="fill:#fec80f;fill-opacity:1"><path
         d="m 249.17187,414.80859 c 12.76954,0 24.77344,-4.97656 33.80469,-14 13.16797,-13.16797 17.4961,-32.96875 11.02344,-50.44922 -0.94531,-2.55859 -2.96875,-4.57812 -5.52734,-5.52734 -17.38282,-6.42578 -37.34766,-2.07031 -50.44141,11.02344 -11.69141,11.6914 -16.39453,28.61328 -12.77734,44.48828 l -11.01954,11.01953 c -0.35937,-2.7539 -0.9414,-5.49609 -1.80078,-8.19531 -5.64062,-17.7461 -21.23437,-30.6875 -39.73047,-32.97656 -2.71484,-0.33203 -5.43359,0.53125 -7.44921,2.36718 -13.77735,12.54688 -19.03516,32.125 -13.39454,49.86719 3.875,12.19531 12.45313,22.11719 23.4375,27.875 l -11.34765,11.34766 c -0.35938,-2.76172 -0.9336,-5.50391 -1.79297,-8.19922 -5.64063,-17.74609 -21.24219,-30.69141 -39.73438,-32.97656 -2.70703,-0.33594 -5.42968,0.52734 -7.45312,2.36718 -13.77734,12.55079 -19.027344,32.125 -13.39063,49.86719 4.9375,15.52344 17.4961,27.375 32.94141,31.62891 4.25781,15.45312 16.10938,28.00781 31.63281,32.94531 4.71094,1.49609 9.58594,2.25391 14.4961,2.25391 13.41797,0 26.3125,-5.69922 35.375,-15.64844 1.83593,-2.01563 2.70312,-4.73828 2.36718,-7.44922 -2.28515,-18.49609 -15.23437,-34.08984 -32.97656,-39.73437 -2.69531,-0.85547 -5.44531,-1.46094 -8.21875,-1.83204 l 11.33985,-11.34375 c 5.76171,11.00391 15.69531,19.58985 27.89453,23.46875 4.71484,1.50391 9.59375,2.26172 14.49609,2.26172 13.42578,0 26.31641,-5.70703 35.375,-15.64843 1.83984,-2.01954 2.70313,-4.74219 2.36719,-7.45313 -2.28516,-18.49219 -15.23047,-34.08984 -32.97266,-39.73437 -2.69531,-0.85547 -5.4414,-1.46094 -8.22265,-1.83204 l 10.99609,-10.98828 c 3.5,0.79688 7.07422,1.20703 10.70312,1.20703 z m 2.09375,-45.71093 c 6.82813,-6.83203 16.94922,-9.85938 26.41016,-7.9336 1.91797,9.46875 -0.98437,19.46094 -7.93359,26.41016 -6.84375,6.83984 -16.92969,9.86328 -26.41016,7.93359 -1.92187,-9.47656 0.98438,-19.46484 7.93359,-26.41015 z m -76.47265,20.5625 c 9.29297,2.64843 16.82812,9.8164 19.8125,19.17968 2.97265,9.36719 0.95703,19.57032 -5.09375,27.10157 -9.29297,-2.64844 -16.83203,-9.81641 -19.8086,-19.1836 -2.98046,-9.36718 -0.96484,-19.57031 5.08985,-27.09765 z m -55.375,77.375 c -2.97656,-9.35938 -0.96484,-19.56641 5.09375,-27.09375 9.29297,2.64453 16.83203,9.8125 19.80859,19.17968 2.98047,9.36719 0.96485,19.57032 -5.08984,27.10157 -9.29297,-2.65235 -16.83203,-9.82032 -19.8125,-19.1875 z m 79.50781,47.3164 c -5.14844,4.15235 -11.60547,6.47266 -18.27734,6.47266 -12.8711,0 -24.48438,-8.82813 -28.00391,-21.19141 5.15234,-4.15234 11.60938,-6.46484 18.27734,-6.46484 12.86719,0 24.48047,8.82031 28.00391,21.18359 z m 50.28516,-50.27734 c -5.15235,4.14453 -11.60938,6.46484 -18.28125,6.46484 -12.875,0 -24.48438,-8.82422 -28.00782,-21.1875 5.15235,-4.14843 11.60938,-6.46875 18.28125,-6.46875 12.8711,0 24.48438,8.82813 28.00782,21.19141 z m 0,0"
         id="path4"
         style="fill:#fec80f;fill-opacity:1" /><path
         d="m 544.40234,312.69531 c 2.36328,-7.96875 8.53125,-14.13672 16.4961,-16.5 14.0625,-4.17187 24.94922,-15.05859 29.12109,-29.12109 2.36328,-7.96485 8.53125,-14.13281 16.5,-16.5 30.01953,-8.90625 36.25781,-43.53125 30.24609,-70.4375 -3.55078,-15.92969 -14.0039,-29.16797 -28.67187,-36.32422 -9.29297,-4.53906 -14.22656,-12.43359 -18.58594,-21.36719 -5.1914,-10.64062 -13.91015,-19.35937 -24.55469,-24.550779 -11.5,-5.613281 -18.35546,-12.429687 -24.00781,-24.011719 C 535.75,63.242188 527.03125,54.523438 516.39062,49.328125 507.39453,44.941406 499.58594,40.082031 495.02344,30.746094 487.86719,16.078125 474.62891,5.625 458.70312,2.070312 c -26.96875,-6.023437 -61.53515,0.226563 -70.44531,30.25 -2.36719,7.96875 -8.53125,14.136719 -16.5,16.5 -14.05859,4.171876 -24.94531,15.058594 -29.11719,29.117188 -2.36328,7.964844 -8.53515,14.132812 -16.5,16.496094 -14.0625,4.171875 -24.9414,15.058596 -29.12109,29.117186 l -1.76562,5.97266 c -3.42188,-1.21094 -7.06641,-1.83985 -10.80079,-1.83985 -8.66796,0 -16.8164,3.375 -22.94921,9.50391 l -51.9375,51.94141 c -4.59766,4.59375 -7.35157,10.48047 -8.02344,16.71093 l -38.09766,38.10157 c -3.65625,3.65625 -3.65625,9.58203 0,13.23828 3.65235,3.65234 9.57813,3.65234 13.23047,0 l 30.83203,-30.83594 c 6.61328,8.26953 17.5,9.73828 25.78906,15.62109 13.26172,9.41016 16.44922,22.89063 23.83985,36.31641 8.35547,15.16406 22.22656,27 38.78906,32.64844 14.83984,5.0625 26.91797,17.14453 31.98047,31.98437 6.95703,20.37891 23.27734,36.69532 43.65234,43.64844 14.72266,5.02734 26.90625,17.09766 31.98438,31.98438 1.69531,4.96484 4.85156,9.5 8.94922,12.78125 L 303.59375,540.22266 c -3.65234,3.65625 -3.65234,9.58203 0,13.23828 3.62109,3.61328 9.625,3.60937 13.23828,0 L 433,437.28906 c 6.29297,-0.67187 12.14062,-3.45312 16.70703,-8.01562 l 51.94141,-51.94531 c 9.10937,-9.10547 11.66015,-22.32813 7.64843,-33.74219 l 5.98438,-1.77344 c 14.0625,-4.17187 24.94531,-15.05859 29.12109,-29.11719 z m -55.98828,51.39844 -51.9375,51.94531 c -4.71094,4.70313 -13.0625,2.78516 -15.22265,-3.53515 -6.89063,-20.20313 -23.4375,-36.75782 -43.64844,-43.65625 -14.8086,-5.05078 -26.92969,-17.17188 -31.98438,-31.98047 -6.95312,-20.375 -23.27343,-36.69531 -43.64843,-43.65235 -14.82422,-5.05859 -26.92969,-17.16406 -31.98438,-31.98046 -6.91797,-20.26954 -23.39062,-36.73829 -43.65234,-43.65625 -6.34766,-2.16797 -8.25782,-10.48829 -3.53516,-15.21094 0,0 51.875,-51.875 51.94531,-51.94141 5.29688,-5.30469 14.11719,-5.30078 19.41407,0 l 194.2539,194.25391 c 5.35547,5.34765 5.35547,14.0625 0,19.41406 z m 9.29688,-36.58984 -186.37891,-186.37891 3.63672,-12.24609 c 2.36328,-7.96875 8.53516,-14.13672 16.5,-16.5 14.0625,-4.17188 24.94922,-15.058598 29.11328,-29.117191 2.37109,-7.96875 8.53516,-14.140625 16.50391,-16.503907 14.05859,-4.171874 24.94531,-15.058593 29.11718,-29.117187 5.90235,-19.871094 31.70313,-21.035156 48.42188,-17.304687 10.33984,2.304687 18.9375,9.089843 23.57812,18.613281 5.19532,10.640625 13.91407,19.359375 24.55469,24.550781 11.50781,5.617188 18.35938,12.429688 24.00781,24.015625 5.19532,10.636719 13.91407,19.355465 24.5586,24.550785 8.99219,4.38672 16.80078,9.25 21.35937,18.58593 6.23828,12.77735 14.07032,23.57422 27.20313,29.98047 9.52344,4.64453 16.30469,13.23828 18.61719,23.58203 3.77343,16.91016 2.80859,42.44532 -17.3125,48.41797 -14.0586,4.17188 -24.94532,15.0586 -29.11719,29.11719 -2.36328,7.96875 -8.53125,14.13672 -16.5,16.5 -14.0586,4.17187 -24.94141,15.05469 -29.11328,29.11719 -2.36719,7.96875 -8.53516,14.13281 -16.5,16.49609 z m 0,0"
         id="path5"
         style="fill:#fec80f;fill-opacity:1" /><path
         d="m 210.65234,638.75 c 12.89844,0 25.79688,-4.91016 35.61719,-14.73047 l 44.09375,-44.09375 c 3.65625,-3.65625 3.65625,-9.57422 0,-13.23047 -3.65234,-3.65625 -9.57812,-3.65625 -13.23437,0 0,0 -44.09375,44.08985 -44.09375,44.09375 -12.07813,12.07422 -32.50391,12.25782 -44.76172,0 L 28.050781,450.56641 c -12.339843,-12.33985 -12.339843,-32.42188 0,-44.76172 L 150.20703,283.64453 c 3.65625,-3.65625 3.65625,-9.58203 0,-13.23437 -3.65234,-3.65625 -9.57812,-3.65625 -13.23437,0 L 14.8125,392.56641 c -19.636719,19.64062 -19.636719,51.59375 0,71.23437 l 160.22656,160.21875 c 9.82032,9.82031 22.71485,14.73047 35.61328,14.73047 z m 0,0"
         id="path6"
         style="fill:#fec80f;fill-opacity:1" /></g></g></svg>
