<?xml version="1.0" encoding="UTF-8" standalone="no"?>
<!-- Generator: Adobe Illustrator 19.0.0, SVG Export Plug-In . SVG Version: 6.00 Build 0)  -->

<svg
   version="1.1"
   id="Capa_1"
   x="0px"
   y="0px"
   viewBox="0 0 37.84771 62.095901"
   xml:space="preserve"
   sodipodi:docname="soda.svg"
   width="37.84771"
   height="62.095901"
   inkscape:version="1.3.2 (091e20e, 2023-11-25, custom)"
   xmlns:inkscape="http://www.inkscape.org/namespaces/inkscape"
   xmlns:sodipodi="http://sodipodi.sourceforge.net/DTD/sodipodi-0.dtd"
   xmlns="http://www.w3.org/2000/svg"
   xmlns:svg="http://www.w3.org/2000/svg"><defs
   id="defs25" /><sodipodi:namedview
   id="namedview25"
   pagecolor="#ffffff"
   bordercolor="#000000"
   borderopacity="0.25"
   inkscape:showpageshadow="2"
   inkscape:pageopacity="0.0"
   inkscape:pagecheckerboard="0"
   inkscape:deskcolor="#d1d1d1"
   inkscape:zoom="6.3515625"
   inkscape:cx="52.821648"
   inkscape:cy="19.286593"
   inkscape:window-width="1920"
   inkscape:window-height="1009"
   inkscape:window-x="-8"
   inkscape:window-y="-8"
   inkscape:window-maximized="1"
   inkscape:current-layer="Capa_1" />




<g
   id="g26"
   transform="matrix(0.12104488,0,0,0.12104488,-12.063575,0.06052244)"
   style="fill:#fec80f;fill-opacity:1;stroke:#fec80f;stroke-opacity:1"><g
     id="g2"
     style="fill:#fec80f;fill-opacity:1;stroke:#fec80f;stroke-opacity:1">
	<g
   id="g1"
   style="fill:#fec80f;fill-opacity:1;stroke:#fec80f;stroke-opacity:1">
		<path
   d="M 384.84,29.203 V 22.28 C 384.84,9.996 374.843,0 362.56,0 H 155.648 c -12.284,0 -22.28,9.996 -22.28,22.28 v 5.585 c -18.716,2.44 -33.206,18.482 -33.206,37.851 v 380.567 c 0,19.37 14.489,35.411 33.206,37.851 v 5.585 c 0,12.284 9.996,22.28 22.28,22.28 H 362.56 c 12.284,0 22.28,-9.996 22.28,-22.28 v -6.923 c 15.612,-4.789 26.997,-19.349 26.997,-36.514 V 65.717 c 0,-17.165 -11.385,-31.725 -26.997,-36.514 z M 155.648,15.316 H 362.56 c 3.839,0 6.964,3.124 6.964,6.964 v 5.259 H 148.685 v -5.259 0 c 0,-3.839 3.124,-6.964 6.963,-6.964 z M 362.56,496.684 H 155.648 c -3.839,0 -6.964,-3.125 -6.964,-6.964 v -5.259 h 220.839 v 5.259 0 c 10e-4,3.839 -3.124,6.964 -6.963,6.964 z M 396.521,84.545 v 0 h -53.852 c -4.227,0 -7.658,3.431 -7.658,7.658 0,4.227 3.431,7.658 7.658,7.658 h 53.852 V 418.642 H 199.963 c -4.227,0 -7.658,3.431 -7.658,7.658 0,4.227 3.431,7.658 7.658,7.658 h 196.558 v 12.324 c 0,12.61 -10.252,22.862 -22.862,22.862 -9.689,0 -225.6,0 -235.318,0 -12.61,0 -22.862,-10.252 -22.862,-22.862 v -12.324 h 53.852 c 4.227,0 7.658,-3.431 7.658,-7.658 0,-4.227 -3.431,-7.658 -7.658,-7.658 H 115.479 V 99.862 h 196.558 c 4.227,0 7.658,-3.431 7.658,-7.658 0,-4.227 -3.431,-7.658 -7.658,-7.658 H 115.479 V 65.717 c 0,-12.61 10.252,-22.862 22.862,-22.862 9.718,0 225.629,0 235.318,0 12.61,0 22.862,10.252 22.862,22.862 z"
   id="path1"
   style="fill:#fec80f;fill-opacity:1;stroke:#fec80f;stroke-opacity:1" />
	</g>
</g><g
     id="g4"
     style="fill:#fec80f;fill-opacity:1;stroke:#fec80f;stroke-opacity:1">
	<g
   id="g3"
   style="fill:#fec80f;fill-opacity:1;stroke:#fec80f;stroke-opacity:1">
		<circle
   cx="194.89301"
   cy="247.254"
   r="6.092"
   id="circle2"
   style="fill:#fec80f;fill-opacity:1;stroke:#fec80f;stroke-opacity:1" />
	</g>
</g><g
     id="g6"
     style="fill:#fec80f;fill-opacity:1;stroke:#fec80f;stroke-opacity:1">
	<g
   id="g5"
   style="fill:#fec80f;fill-opacity:1;stroke:#fec80f;stroke-opacity:1">
		<circle
   cx="216.85699"
   cy="247.254"
   r="6.092"
   id="circle4"
   style="fill:#fec80f;fill-opacity:1;stroke:#fec80f;stroke-opacity:1" />
	</g>
</g><g
     id="g8"
     style="fill:#fec80f;fill-opacity:1;stroke:#fec80f;stroke-opacity:1">
	<g
   id="g7"
   style="fill:#fec80f;fill-opacity:1;stroke:#fec80f;stroke-opacity:1">
		<circle
   cx="205.839"
   cy="263.51999"
   r="6.092"
   id="circle6"
   style="fill:#fec80f;fill-opacity:1;stroke:#fec80f;stroke-opacity:1" />
	</g>
</g><g
     id="g10"
     style="fill:#fec80f;fill-opacity:1;stroke:#fec80f;stroke-opacity:1">
	<g
   id="g9"
   style="fill:#fec80f;fill-opacity:1;stroke:#fec80f;stroke-opacity:1">
		<path
   d="m 315.641,192.708 c 20.248,-12.518 35.523,-34.38 36.31,-35.503 0.878,-1.276 1.358,-2.798 1.358,-4.35 0,-5.412 -4.615,-7.056 -6.351,-7.679 -4.165,-1.518 -10.485,-3.442 -16.766,-4.922 -4.115,-0.97 -8.24,1.573 -9.21,5.687 -0.98,4.115 1.572,8.24 5.687,9.21 2.257,0.541 4.36,1.093 6.249,1.624 -14.096,16.669 -30.991,30.867 -52.8,30.867 -6.31,0 -14.346,-1.644 -16.756,-9.496 -4.538,-14.848 19.906,-25.287 35.105,-26.109 4.227,-0.225 7.464,-3.839 7.239,-8.056 -0.225,-4.227 -3.829,-7.495 -8.056,-7.24 -12.012,0.636 -23.749,4.75 -32.726,10.384 l 2.195,-31.245 c 0.296,-4.217 -2.879,-7.872 -7.096,-8.169 -4.217,-0.317 -7.883,2.879 -8.179,7.096 l -2.4,34.033 c -4.289,-3.921 -9.619,-7.546 -15.949,-10.854 -25.006,-13.08 -64.052,-5.943 -65.706,-5.636 -4.871,0.926 -7.595,6.17 -5.575,10.66 0.653,1.45 15.347,33.798 38.056,48.389 -29.662,18.818 -49.379,51.953 -49.379,89.61 0,35.709 18.002,69.262 48.246,88.885 70.551,46.166 163.873,-5.307 163.873,-88.885 -10e-4,-37.333 -19.157,-69.503 -47.369,-88.301 z M 181.022,146.045 c 13.111,-1.164 32.695,-1.123 45.377,5.514 29.728,15.545 21.894,33.215 9.016,34.87 -7.803,1.011 -17.016,-2.593 -23.995,-6.229 -13.417,-7.015 -24.435,-23.617 -30.398,-34.155 z m -2.542,180.486 c -26.174,-44.856 -9.237,-103.793 38.934,-127.196 13.288,4.261 27.685,3.879 37.198,-6.188 10.593,11.684 28.456,11.315 43.743,7.117 10.405,5.361 19.656,12.672 27.242,21.453 z m 136.896,-43.892 -39.424,-6.621 c 20.169,-14.367 12.411,-8.841 32.583,-23.209 8.059,15.115 6.722,28.512 6.841,29.83 z m -41.962,8.484 39.421,6.621 c -0.493,1.1 -3.614,14.3 -16.205,25.968 z m 10.747,41.484 c -7.413,3.962 -15.508,6.259 -23.83,6.79 l 2.376,-36.905 z m -36.389,-36.514 -2.723,42.304 c -1.545,-0.569 -17.653,-2.428 -31.802,-17.707 l 34.523,-24.598 h 0.002 z m -22.884,69.801 c -0.01,-0.01 -0.031,-0.01 -0.041,-0.01 -14.778,-5.624 -27.65,-14.888 -37.576,-26.803 l 13.356,-9.516 c 11.252,12.845 26.456,21.361 43.518,24.23 61.284,10.425 107.891,-55.643 76.898,-110.021 l 13.57,-9.67 c 43.532,71.882 -27.58,162.757 -109.725,131.79 z"
   id="path8"
   style="fill:#fec80f;fill-opacity:1;stroke:#fec80f;stroke-opacity:1" />
	</g>
</g></g>
<g
   id="g11"
   transform="translate(-29.567654,-76.770966)">
</g>
<g
   id="g12"
   transform="translate(-29.567654,-76.770966)">
</g>
<g
   id="g13"
   transform="translate(-29.567654,-76.770966)">
</g>
<g
   id="g14"
   transform="translate(-29.567654,-76.770966)">
</g>
<g
   id="g15"
   transform="translate(-29.567654,-76.770966)">
</g>
<g
   id="g16"
   transform="translate(-29.567654,-76.770966)">
</g>
<g
   id="g17"
   transform="translate(-29.567654,-76.770966)">
</g>
<g
   id="g18"
   transform="translate(-29.567654,-76.770966)">
</g>
<g
   id="g19"
   transform="translate(-29.567654,-76.770966)">
</g>
<g
   id="g20"
   transform="translate(-29.567654,-76.770966)">
</g>
<g
   id="g21"
   transform="translate(-29.567654,-76.770966)">
</g>
<g
   id="g22"
   transform="translate(-29.567654,-76.770966)">
</g>
<g
   id="g23"
   transform="translate(-29.567654,-76.770966)">
</g>
<g
   id="g24"
   transform="translate(-29.567654,-76.770966)">
</g>
<g
   id="g25"
   transform="translate(-29.567654,-76.770966)">
</g>
</svg>
