<?xml version="1.0" encoding="UTF-8" standalone="no"?>
<!-- Created with Inkscape (http://www.inkscape.org/) -->

<svg
   width="14.979753mm"
   height="15.103473mm"
   viewBox="0 0 14.979753 15.103473"
   version="1.1"
   id="svg1"
   xml:space="preserve"
   inkscape:version="1.3.2 (091e20e, 2023-11-25, custom)"
   sodipodi:docname="spraak.svg"
   xmlns:inkscape="http://www.inkscape.org/namespaces/inkscape"
   xmlns:sodipodi="http://sodipodi.sourceforge.net/DTD/sodipodi-0.dtd"
   xmlns="http://www.w3.org/2000/svg"
   xmlns:svg="http://www.w3.org/2000/svg"><sodipodi:namedview
     id="namedview1"
     pagecolor="#ffffff"
     bordercolor="#000000"
     borderopacity="0.25"
     inkscape:showpageshadow="2"
     inkscape:pageopacity="0.0"
     inkscape:pagecheckerboard="0"
     inkscape:deskcolor="#d1d1d1"
     inkscape:document-units="mm"
     inkscape:zoom="8.1941057"
     inkscape:cx="18.122783"
     inkscape:cy="42.65261"
     inkscape:window-width="1920"
     inkscape:window-height="1009"
     inkscape:window-x="-8"
     inkscape:window-y="-8"
     inkscape:window-maximized="1"
     inkscape:current-layer="g5" /><defs
     id="defs1" /><g
     inkscape:label="Layer 1"
     inkscape:groupmode="layer"
     id="layer1"
     transform="translate(-1.8281716,-2.003967)"><g
       id="g6"
       transform="matrix(0.02949897,0,0,0.02949897,1.7663123,2.003967)"
       style="fill:#fec80f;fill-opacity:1">
	<path
   d="m 393.729,214.45 c 2.914,2.914 6.783,4.458 10.729,4.458 1.961,0 3.941,-0.381 5.832,-1.165 5.698,-2.361 9.381,-7.872 9.381,-14.04 v -130.3 c 0,-17.55 -14.277,-31.827 -31.827,-31.827 H 349.08 V 31.83 C 349.08,14.279 334.801,0 317.25,0 H 124.78 C 107.234,0 92.96,14.279 92.96,31.83 v 130.3 c 0,6.169 3.682,11.68 9.378,14.04 1.89,0.783 3.868,1.164 5.827,1.164 3.948,0 7.819,-1.546 10.736,-4.462 l 28.142,-28.141 h 16.506 v 9.745 c 0,17.549 14.277,31.827 31.827,31.827 h 36.243 c 5.522,0 10,-4.477 10,-10 0,-5.523 -4.478,-10 -10,-10 h -36.243 c -6.521,0 -11.827,-5.306 -11.827,-11.827 V 73.403 c 0,-6.521 5.306,-11.827 11.827,-11.827 h 192.469 c 6.521,0 11.827,5.306 11.827,11.827 v 118.706 l -22.877,-22.877 c -1.876,-1.875 -4.419,-2.929 -7.071,-2.929 H 322.74 c -5.522,0 -10,4.477 -10,10 0,5.523 4.478,10 10,10 h 42.842 z M 163.549,73.403 V 124.73 H 142.9 c -2.652,0 -5.195,1.054 -7.071,2.929 L 112.96,150.528 V 31.83 c 0,-6.523 5.303,-11.83 11.82,-11.83 h 192.47 c 6.523,0 11.83,5.307 11.83,11.83 v 9.746 H 195.376 c -17.55,0 -31.827,14.277 -31.827,31.827 z"
   id="path1"
   style="fill:#fec80f;fill-opacity:1" />
	<path
   d="m 238.937,103.599 h 105.348 c 5.522,0 10,-4.477 10,-10 0,-5.523 -4.478,-10 -10,-10 H 238.937 c -5.522,0 -10,4.477 -10,10 0,5.523 4.477,10 10,10 z"
   id="path2"
   style="fill:#fec80f;fill-opacity:1" />
	<path
   d="m 321.43,133.599 c 0,-5.523 -4.478,-10 -10,-10 h -72.493 c -5.522,0 -10,4.477 -10,10 0,5.523 4.478,10 10,10 h 72.493 c 5.522,0 10,-4.477 10,-10 z"
   id="path3"
   style="fill:#fec80f;fill-opacity:1" />
	<circle
   cx="276.84201"
   cy="176.985"
   r="10"
   id="circle3"
   style="fill:#fec80f;fill-opacity:1" />
	<g
   id="g5"
   style="fill:#fec80f;fill-opacity:1">
		<path
   d="m 128.906,374.859 c 17.205,-11.926 28.502,-31.801 28.502,-54.273 0,-36.396 -29.61,-66.007 -66.007,-66.007 -36.397,0 -66.007,29.61 -66.007,66.007 0,22.472 11.296,42.346 28.5,54.272 -30.556,14.198 -51.797,45.177 -51.797,81.03 v 35.718 c 0,11.245 9.148,20.394 20.394,20.394 h 137.82 c 11.245,0 20.394,-9.149 20.394,-20.394 v -35.718 c 0,-35.851 -21.24,-66.83 -51.799,-81.029 z M 45.395,320.586 c 0,-25.368 20.639,-46.007 46.007,-46.007 25.368,0 46.007,20.639 46.007,46.007 0,25.347 -20.605,45.971 -45.945,46.005 -0.023,0 -0.045,-0.001 -0.068,-0.001 -0.02,0 -0.04,0.001 -0.06,0.001 -25.338,-0.036 -45.941,-20.659 -45.941,-46.005 z m 115.31,171.02 c 0,0.217 -0.177,0.394 -0.394,0.394 H 22.491 c -0.217,0 -0.394,-0.177 -0.394,-0.394 v -35.718 c 0,-38.193 31.059,-69.268 69.259,-69.296 0.015,0 0.03,0.001 0.045,0.001 0.017,0 0.034,-0.001 0.051,-0.001 38.19,0.025 69.253,31.101 69.253,69.296 z"
   id="path4"
   style="fill:#fec80f;fill-opacity:1"
   sodipodi:nodetypes="cssscsssssscssssscsscssssscss" />
		<path
   d="m 458.104,374.859 c 17.205,-11.926 28.502,-31.801 28.502,-54.273 0,-36.396 -29.61,-66.007 -66.007,-66.007 -36.397,0 -66.007,29.61 -66.007,66.007 0,22.472 11.296,42.346 28.5,54.272 -30.556,14.198 -51.797,45.177 -51.797,81.03 v 35.718 c 0,11.245 9.148,20.394 20.394,20.394 h 137.82 c 11.245,0 20.394,-9.149 20.394,-20.394 v -35.718 c -0.001,-35.851 -21.24,-66.83 -51.799,-81.029 z m -83.512,-54.273 c 0,-25.368 20.639,-46.007 46.007,-46.007 25.368,0 46.007,20.639 46.007,46.007 0,25.347 -20.605,45.971 -45.945,46.005 -0.022,0 -0.045,-0.001 -0.068,-0.001 -0.02,0 -0.04,0.001 -0.06,0.001 -25.338,-0.036 -45.941,-20.659 -45.941,-46.005 z m 115.31,171.02 c 0,0.217 -0.177,0.394 -0.394,0.394 h -137.82 c -0.217,0 -0.394,-0.177 -0.394,-0.394 v -35.718 c 0,-38.193 31.059,-69.268 69.259,-69.296 0.015,0 0.03,0.001 0.045,0.001 0.017,0 0.034,-0.001 0.051,-0.001 38.19,0.025 69.253,31.101 69.253,69.296 z"
   id="path5"
   style="fill:#fec80f;fill-opacity:1"
   sodipodi:nodetypes="cssscsssssccssssscssccsssscss" />
	</g>
</g></g></svg>
