<?xml version="1.0" encoding="UTF-8" standalone="no"?>
<svg
   xmlns:dc="http://purl.org/dc/elements/1.1/"
   xmlns:cc="http://creativecommons.org/ns#"
   xmlns:rdf="http://www.w3.org/1999/02/22-rdf-syntax-ns#"
   xmlns:svg="http://www.w3.org/2000/svg"
   xmlns="http://www.w3.org/2000/svg"
   xmlns:sodipodi="http://sodipodi.sourceforge.net/DTD/sodipodi-0.dtd"
   xmlns:inkscape="http://www.inkscape.org/namespaces/inkscape"
   sodipodi:docname="stress.svg"
   inkscape:version="1.0 (4035a4fb49, 2020-05-01)"
   id="svg13420"
   version="1.1"
   viewBox="0 0 11.344009 14.816787"
   height="14.816787mm"
   width="11.344009mm">
  <defs
     id="defs13414">
    <clipPath
       clipPathUnits="userSpaceOnUse"
       id="clipPath9413">
      <path
         d="M 0,4.8828125e-4 H 2475 V 3503.1255 H 0 Z"
         clip-rule="evenodd"
         id="path9411" />
    </clipPath>
  </defs>
  <sodipodi:namedview
     inkscape:window-maximized="0"
     inkscape:window-y="0"
     inkscape:window-x="234"
     inkscape:window-height="1009"
     inkscape:window-width="1375"
     showgrid="false"
     inkscape:document-rotation="0"
     inkscape:current-layer="layer1"
     inkscape:document-units="mm"
     inkscape:cy="130.85738"
     inkscape:cx="18.580355"
     inkscape:zoom="0.35"
     inkscape:pageshadow="2"
     inkscape:pageopacity="0.0"
     borderopacity="1.0"
     bordercolor="#666666"
     pagecolor="#ffffff"
     id="base" />
  <metadata
     id="metadata13417">
    <rdf:RDF>
      <cc:Work
         rdf:about="">
        <dc:format>image/svg+xml</dc:format>
        <dc:type
           rdf:resource="http://purl.org/dc/dcmitype/StillImage" />
        <dc:title></dc:title>
      </cc:Work>
    </rdf:RDF>
  </metadata>
  <g
     transform="translate(-100.91728,-113.54398)"
     id="layer1"
     inkscape:groupmode="layer"
     inkscape:label="Layer 1">
    <g
       transform="matrix(0.08466666,0,0,0.08466666,5.898801,-139.133)"
       id="g9409"
       clip-path="url(#clipPath9413)">
      <g
         id="g9415"
         transform="matrix(5.46875,0,0,5.46875,1122.2656,2984.3755)">
        <path
           d="M 8.276,5.2839999 C 8.337,5.1220002 8.31,4.9400001 8.204,4.802 8.204,4.802 4.6459994,0.19399999 4.6459994,0.19399999 4.4770002,-0.024 4.1630001,-0.06500001 3.944,0.104 3.7259998,0.273 3.6859999,0.58700001 3.854,0.80599999 c 0,0 3.0629997,3.96699981 3.0629997,3.96699981 0,0 -2.1739998,0.4260001 -2.1739998,0.4260001 C 4.5609998,5.2339999 4.413,5.368 4.36,5.5469999 c -0.053,0.178 -0.002,0.3720002 0.1310001,0.501 0,0 3.4099998,3.3099999 3.4109998,3.3110003 0.1819996,0.1770001 0.5090003,0.1929998 0.7070002,-0.011001 0.1919994,-0.198 0.1869993,-0.514 -0.011001,-0.7069998 0,0 -2.7239995,-2.645 -2.7239995,-2.645 0,0 2.0300002,-0.3969998 2.0300002,-0.3969998 C 8.0740004,5.5650001 8.2150002,5.4460001 8.276,5.2839999 M 0.377,5.6669998 c -0.184,0.2049999 -0.16599999,0.5210004 0.039,0.7060003 0,0 2.7270001,2.441 2.7270001,2.441 0,0 -1.2010001,0.5570002 -1.2010001,0.5570002 C 1.777,9.448 1.666,9.6090002 1.654,9.7910004 1.641,9.9720001 1.7279999,10.147 1.881,10.245 c 0,0 2.5980001,1.675 2.5980001,1.675 0.2269998,0.147 0.5429997,0.081 0.691,-0.149 0.1500001,-0.232 0.083,-0.541 -0.1490002,-0.691 0,0 -1.8349998,-1.1829997 -1.8349998,-1.1829997 0,0 1.0669997,-0.4960003 1.0669997,-0.4960003 0.1520004,-0.07 0.2590003,-0.2130003 0.2840004,-0.3789997 0.025,-0.1670008 -0.036,-0.3340006 -0.1610003,-0.4470005 0,0 -3.293,-2.9469995 -3.293,-2.9469995 C 0.87800002,5.4429998 0.56199998,5.461 0.377,5.6669998 m 15.514,3.6809998 c 0.094,0.097 0.227,0.1460008 0.359,0.1460008 0.128,0 0.254999,-0.044001 0.348,-0.1350002 0,0 3.411001,-3.3110003 3.411001,-3.3110003 0.132999,-0.1289998 0.184,-0.323 0.130998,-0.501 -0.053,-0.1789999 -0.201,-0.3129997 -0.382999,-0.348 0,0 -2.174999,-0.4260001 -2.174999,-0.4260001 0,0 3.063999,-3.96699981 3.063999,-3.96699981 C 20.813999,0.58700001 20.774,0.273 20.556,0.104 c -0.219,-0.168 -0.532999,-0.128 -0.702,0.09 0,0 -3.558001,4.608 -3.558001,4.608 -0.105999,0.1380001 -0.132999,0.3200002 -0.072,0.4819999 0.061,0.1620002 0.202,0.2810002 0.372,0.3150001 0,0 2.029998,0.3969998 2.029998,0.3969998 0,0 -2.723999,2.645 -2.723999,2.645 -0.198,0.1929998 -0.203,0.5089998 -0.011,0.7069998 m 8.231,-3.6809998 c -0.184,-0.2059998 -0.5,-0.224 -0.706,-0.039 0,0 -3.291999,2.9469995 -3.291999,2.9469995 -0.125,0.1129999 -0.186001,0.2799997 -0.161002,0.4470005 0.025,0.1659994 0.132,0.309 0.284001,0.3789997 0,0 1.066999,0.4960003 1.066999,0.4960003 0,0 -1.834999,1.1830002 -1.834999,1.1830002 -0.232,0.15 -0.299,0.459 -0.149,0.691 0.095,0.148 0.256,0.229 0.42,0.229 0.093,0 0.187,-0.026 0.271,-0.08 0,0 2.597999,-1.675 2.597999,-1.675 0.153,-0.098 0.24,-0.2730004 0.227002,-0.4540001 C 22.834,9.6090002 22.723,9.448 22.558001,9.3710003 c 0,0 -1.201001,-0.5570002 -1.201001,-0.5570002 0,0 2.726,-2.441 2.726,-2.441 0.206,-0.1849999 0.223999,-0.5010004 0.039,-0.7060003 M 0,29.938999 C 0,31.077 0.89499998,32 2,32 c 0,0 10.25,0 10.25,0 0,0 10.25,0 10.25,0 1.104,0 2,-0.923 2,-2.061001 0,0 0,-2.038999 0,-2.038999 0,-4.205 -2.622,-7.851 -6.143999,-9.668999 C 17.444,20.719 15.051,22.5 12.25,22.5 9.4490004,22.5 7.0560002,20.719 6.1440001,18.231001 2.622,20.048 0,23.695 0,27.9 c 0,0 0,2.038999 0,2.038999 M 18.25,28.5 c 0,-0.275999 0.224001,-0.5 0.5,-0.5 0.275999,0 0.5,0.224001 0.5,0.5 0,0 0,2.469 0,2.469 0,0 -1,0 -1,0 0,0 0,-2.469 0,-2.469 m -13,0 c 0,-0.275999 0.224,-0.5 0.5,-0.5 0.276,0 0.5,0.224001 0.5,0.5 0,0 0,2.469 0,2.469 0,0 -1,0 -1,0 0,0 0,-2.469 0,-2.469 M 6.75,16 c 0,4.233999 4.583,6.879999 8.25,4.763 C 16.702,19.781 17.75,17.965 17.75,16 17.75,11.766 13.166,9.1199999 9.5,11.237 7.7979999,12.219 6.75,14.035 6.75,16"
           style="fill:#fec80f;fill-opacity:1;fill-rule:evenodd;stroke:none"
           id="path9417" />
      </g>
    </g>
  </g>
</svg>
