<?xml version="1.0" encoding="UTF-8" standalone="no"?>
<svg
   xmlns:dc="http://purl.org/dc/elements/1.1/"
   xmlns:cc="http://creativecommons.org/ns#"
   xmlns:rdf="http://www.w3.org/1999/02/22-rdf-syntax-ns#"
   xmlns:svg="http://www.w3.org/2000/svg"
   xmlns="http://www.w3.org/2000/svg"
   xmlns:sodipodi="http://sodipodi.sourceforge.net/DTD/sodipodi-0.dtd"
   xmlns:inkscape="http://www.inkscape.org/namespaces/inkscape"
   sodipodi:docname="tablet.svg"
   inkscape:version="1.0 (4035a4fb49, 2020-05-01)"
   id="svg11624"
   version="1.1"
   viewBox="0 0 13.455371 14.816774"
   height="14.816774mm"
   width="13.455371mm">
  <defs
     id="defs11618">
    <clipPath
       clipPathUnits="userSpaceOnUse"
       id="clipPath9467">
      <path
         d="M 0,4.8828125e-4 H 2475 V 3503.1255 H 0 Z"
         clip-rule="evenodd"
         id="path9465" />
    </clipPath>
  </defs>
  <sodipodi:namedview
     inkscape:window-maximized="0"
     inkscape:window-y="0"
     inkscape:window-x="156"
     inkscape:window-height="1009"
     inkscape:window-width="1375"
     showgrid="false"
     inkscape:document-rotation="0"
     inkscape:current-layer="layer1"
     inkscape:document-units="mm"
     inkscape:cy="113.71449"
     inkscape:cx="-17.42967"
     inkscape:zoom="0.35"
     inkscape:pageshadow="2"
     inkscape:pageopacity="0.0"
     borderopacity="1.0"
     bordercolor="#666666"
     pagecolor="#ffffff"
     id="base" />
  <metadata
     id="metadata11621">
    <rdf:RDF>
      <cc:Work
         rdf:about="">
        <dc:format>image/svg+xml</dc:format>
        <dc:type
           rdf:resource="http://purl.org/dc/dcmitype/StillImage" />
        <dc:title></dc:title>
      </cc:Work>
    </rdf:RDF>
  </metadata>
  <g
     transform="translate(-110.44493,-118.07971)"
     id="layer1"
     inkscape:groupmode="layer"
     inkscape:label="Layer 1">
    <g
       transform="matrix(0.08466666,0,0,0.08466666,10.498583,-60.778654)"
       id="g9461">
      <g
         id="g9463"
         clip-path="url(#clipPath9467)">
        <g
           id="g9469"
           transform="matrix(5.46875,0,0,5.46875,1180.4688,2112.5005)">
          <path
             d="m 14.461,27.07 c 0,0 -11.6830001,0 -11.6830001,0 0,0 0,-24.0419999 0,-24.0419999 0,0 17.5240001,0 17.5240001,0 0,0 0,16.7399999 0,16.7399999 0.072,0.036 0.107,0.071 0.178,0.107 0.072,-0.427 0.321001,-0.819 0.713001,-1.104 0.355999,-0.25 0.712,-0.355999 1.067999,-0.285 0.25,0.035 0.499,0.178 0.748001,0.355999 0,-0.036 0.036,-0.106998 0.072,-0.141998 0,-7.267001 0,-16.2780011 0,-16.2780011 C 23.080999,1.104 21.976,0 20.659,0 20.659,0 2.4219999,0 2.4219999,0 1.104,0 0,1.104 0,2.4219999 c 0,0 0,25.2529991 0,25.2529991 C 0,28.993 1.104,30.097 2.4219999,30.097 c 0,0 14.8530001,0 14.8530001,0 0,0 -2.814,-3.027 -2.814,-3.027 M 11.469,1.2820001 c 0.143,0 0.285,0.1429998 0.285,0.2849999 0,0.143 -0.142,0.285 -0.285,0.285 -0.142,0 -0.285,-0.142 -0.285,-0.285 0,-0.1420001 0.143,-0.2849999 0.285,-0.2849999 m 0.178,27.9250009 c -0.534,0.142 -0.997,-0.356001 -0.855,-0.855002 0.072,-0.248998 0.25,-0.427 0.499,-0.498998 0.534,-0.142001 0.997,0.356998 0.855,0.854999 -0.071,0.214001 -0.285,0.428 -0.499,0.499001 M 15.672,17.097 c 0.463,0 0.855,-0.392 0.855,-0.854999 0,0 0,0 0,-0.036 0,-2.991999 -2.244,-5.448999 -5.022,-5.448999 -2.7790002,0 -5.0220002,2.493 -5.0220002,5.485001 0,0.462999 0.3910003,0.854999 0.8540001,0.854999 0,0 8.3350001,0 8.3350001,0 M 14.817,26.5 c 0,0 3.454999,3.669001 3.454999,3.669001 1.888001,2.03 4.951001,2.421999 7.302,0.925998 0.036,0 0.036,-0.036 0.071,-0.036 0,0 1.104001,-0.712 1.104001,-0.712 2.314998,-1.496 2.991998,-4.524 1.567998,-6.875 0,0 -2.706998,-4.416 -2.706998,-4.416 -0.321,-0.499 -0.713001,-0.747998 -1.069,-0.712999 -0.392,0.036 -0.712,0.357001 -0.819,0.605999 -0.071,0.178002 -0.107,0.356001 -0.036,0.427 0,0 0,0.036 0.036,0.036 0,0 0.89,1.637998 1.282,2.208 0.107,0.142999 0.036,0.355999 -0.107001,0.462999 -0.142,0.107001 -0.355999,0.036 -0.462999,-0.107 0,0 -1.282,-1.994 -1.282,-1.994 -0.321001,-0.534 -0.677,-0.819 -0.961999,-0.891 -0.178002,-0.035 -0.392001,0.036 -0.57,0.177999 0,0 0,0 -0.035,0 -0.427999,0.285002 -0.57,0.891001 -0.285,1.318001 0,0 1.460001,2.316 1.460001,2.316 0.107001,0.142 0.036,0.356001 -0.107,0.462999 0,0 -0.035,0 -0.035,0 -0.143,0.106001 -0.357,0.035 -0.462999,-0.106998 0,0 -1.318001,-2.066 -1.318001,-2.066 C 20.622999,20.837 20.302,20.409 19.910999,20.302 c -0.177999,-0.035 -0.392,0 -0.642,0.178 -0.177999,0.142999 -0.283998,0.284999 -0.32,0.464 -0.071,0.390999 0.107001,0.89 0.356001,1.353001 0,0 0.855,1.317999 0.855,1.317999 0.177999,0.249 0.285,0.427 0.32,0.534 0.072,0.143 0,0.355999 -0.142001,0.428 -0.142,0.071 -0.355999,0.035 -0.427,-0.107001 0,0 -0.320999,-0.498998 -0.320999,-0.498998 0,-0.036 -0.036,-0.036 -0.036,-0.071 -0.249001,-0.355999 -0.569,-0.819001 -0.819,-1.317999 0,0 -2.386,-3.811001 -2.386,-3.811001 -0.285001,-0.463 -0.891,-0.606 -1.318,-0.321 -0.428,0.285 -0.57,0.890999 -0.285,1.317999 0,0 4.702,7.479999 4.702,7.479999 0.071,0.142 0.071,0.321001 -0.072,0.427 -0.142,0.107001 -0.319999,0.107001 -0.427,0 C 18.878,27.639999 18.806,27.533001 18.700001,27.462 18.165001,26.962999 16.954,25.752001 15.85,25.823 15.458,25.966 15.137999,26.143999 14.817,26.5 M 8.7980003,7.5510001 C 8.7980003,9.6350002 11.054,10.937 12.858,9.8950005 13.696,9.4119997 14.212,8.5179996 14.212,7.5510001 14.212,5.467 11.956,4.165 10.151,5.2069998 9.3140001,5.6900001 8.7980003,6.5840001 8.7980003,7.5510001"
             style="fill:#fec80f;fill-opacity:1;fill-rule:evenodd;stroke:none"
             id="path9471" />
        </g>
      </g>
    </g>
  </g>
</svg>
