<?xml version="1.0" encoding="UTF-8" standalone="no"?>
<svg
   xmlns:dc="http://purl.org/dc/elements/1.1/"
   xmlns:cc="http://creativecommons.org/ns#"
   xmlns:rdf="http://www.w3.org/1999/02/22-rdf-syntax-ns#"
   xmlns:svg="http://www.w3.org/2000/svg"
   xmlns="http://www.w3.org/2000/svg"
   xmlns:sodipodi="http://sodipodi.sourceforge.net/DTD/sodipodi-0.dtd"
   xmlns:inkscape="http://www.inkscape.org/namespaces/inkscape"
   sodipodi:docname="wedding_ring.svg"
   inkscape:version="1.0 (4035a4fb49, 2020-05-01)"
   id="svg7769"
   version="1.1"
   viewBox="0 0 14.022983 11.321057"
   height="11.321057mm"
   width="14.022983mm">
  <defs
     id="defs7763" />
  <sodipodi:namedview
     inkscape:window-maximized="0"
     inkscape:window-y="0"
     inkscape:window-x="182"
     inkscape:window-height="1009"
     inkscape:window-width="1375"
     showgrid="false"
     inkscape:document-rotation="0"
     inkscape:current-layer="layer1"
     inkscape:document-units="mm"
     inkscape:cy="144.25125"
     inkscape:cx="-113.49988"
     inkscape:zoom="0.35"
     inkscape:pageshadow="2"
     inkscape:pageopacity="0.0"
     borderopacity="1.0"
     bordercolor="#666666"
     pagecolor="#ffffff"
     id="base" />
  <metadata
     id="metadata7766">
    <rdf:RDF>
      <cc:Work
         rdf:about="">
        <dc:format>image/svg+xml</dc:format>
        <dc:type
           rdf:resource="http://purl.org/dc/dcmitype/StillImage" />
        <dc:title></dc:title>
      </cc:Work>
    </rdf:RDF>
  </metadata>
  <g
     transform="translate(-135.86351,-110.00019)"
     id="layer1"
     inkscape:groupmode="layer"
     inkscape:label="Layer 1">
    <g
       id="g1811"
       transform="matrix(0.43821612,0,0,0.44648435,135.86345,110.00019)">
      <path
         d="M 31.277,13.791 C 30.343,11.696 28.589001,9.7069998 26.337,8.1850004 24.250999,6.7779999 21.983,5.9359999 19.849001,5.7470002 19.556999,5.0100002 19.124001,4.355 18.525,3.8299999 c 0,0 -2.952,-2.5889998 -2.952,-2.5889998 -0.001,0 -0.002,-0.002 -0.003,-0.002 C 14.646,0.428 13.424,0 12.036,0 9.2360001,0 5.96,1.7490001 3.4890001,4.5669999 -0.38200003,8.9790001 -1.141,14.432 1.762,16.979 c 0,0 2.9569999,2.593001 2.9569999,2.593001 0.9230003,0.809999 2.144,1.236999 3.5299997,1.236999 1.4560003,0 3.0400004,-0.479 4.5720004,-1.33 0.947,1.254 2.175,2.413 3.606999,3.381001 2.384001,1.606998 5.013001,2.496 7.4,2.496 2.288,0 4.110001,-0.833 5.130001,-2.345001 0,0 2.199,-3.254 2.199,-3.254 0,0 0.002,-9.99e-4 0.002,-9.99e-4 C 32.237999,18.157 32.280998,16.038 31.277,13.791 M 7.5479999,8.1280003 C 9.7489996,5.6170001 12.603,4.059 14.993,4.059 c 0.053,0 0.099,0.01 0.149,0.011 0.007,0.017 0.012,0.037 0.018,0.056 0.022,0.071 0.05,0.1370001 0.068,0.2119999 0.018,0.072 0.027,0.151 0.042,0.2270003 0.019,0.097 0.042,0.1929998 0.054,0.296 0.008,0.061 0.009,0.1300001 0.014,0.1929998 0.01,0.1220002 0.023,0.2420001 0.025,0.368 0.002,0.077 -0.005,0.159 -0.007,0.237 C 15.35,5.9780002 15.325,6.3080001 15.268,6.6560001 14.685,7.02 14.185,7.473 13.807,8.0340004 c 0,0 -0.001,0.002 -0.002,0.002 0,0 -2.198,3.2569996 -2.198,3.2569996 -0.512,0.758 -0.784,1.638 -0.827,2.591 -1.7839997,1.488 -3.7660001,2.379 -5.4880002,2.379 -0.23,0 -0.4479999,-0.017 -0.6569996,-0.048 -0.01,-0.002 -0.019,-0.005 -0.028,-0.007 -0.036,-0.006 -0.068,-0.017 -0.1039996,-0.025 C 4.1300001,13.898 5.217,10.785 7.5479999,8.1280003 M 27.125999,22.018999 c 0.047,-0.007 0.100001,-0.004 0.147002,-0.011 C 26.611,22.905001 25.393999,23.4 23.827999,23.4 21.855,23.4 19.556999,22.611 17.523001,21.239 15.571,19.919001 14.063,18.222 13.276,16.458 12.58,14.9 12.543,13.493 13.167,12.481 c 0.036,0.151 0.088,0.303 0.135,0.456 0.025,0.086 0.046,0.17 0.075,0.258 0.091,0.265 0.194,0.533 0.315,0.802 0.934,2.093 2.687999,4.082 4.937999,5.6 2.383001,1.611 5.011002,2.499001 7.400002,2.499001 0.380998,0 0.743,-0.033 1.095998,-0.077 M 6.092,18.172001 c 0.035,-0.005 0.073,-0.013 0.1090002,-0.017 0.2219997,-0.029 0.4460001,-0.065 0.6709995,-0.112002 0.094,-0.019 0.1870003,-0.048 0.2810002,-0.071 0.1690001,-0.04 0.3369999,-0.084 0.5069999,-0.135 0.112,-0.035 0.2250004,-0.075 0.3380003,-0.113001 0.1499997,-0.052 0.2980004,-0.105 0.4469996,-0.164 0.1260004,-0.05 0.2510004,-0.104 0.3769998,-0.156999 0.1340008,-0.059 0.2690001,-0.122 0.4040003,-0.187 0.1360007,-0.065 0.2709999,-0.133 0.4060002,-0.204001 0.1210003,-0.063 0.2399997,-0.132 0.3590002,-0.199999 C 10.137,16.729999 10.282,16.648001 10.426,16.558001 10.529,16.493 10.63,16.424 10.732,16.357 c 0.117,-0.076 0.235,-0.146 0.35,-0.229 0.111,0.372999 0.240001,0.747 0.41,1.129 0.085,0.188 0.183,0.378 0.281,0.565001 C 10.571,18.475 9.3559999,18.855 8.25,18.855 c -0.8740001,0 -1.5999999,-0.229001 -2.1589999,-0.682 -9.999e-4,-9.99e-4 0,-9.99e-4 9.999e-4,-9.99e-4 M 17.296,6.119 C 17.303,6.029 17.3,5.9450002 17.304,5.8569999 17.311,5.697 17.321,5.533 17.318,5.3759999 19.072,7.0469999 18.443,10.875 15.979999,14.146 15.792,13.833 15.619,13.517 15.477,13.201 15.298,12.802 15.165,12.414 15.072,12.04 16.174,10.411 16.917999,8.6660004 17.195999,6.9759998 17.243999,6.684 17.276001,6.4000001 17.296,6.119 m 8.735,14.022001 c -1.974001,0 -4.273001,-0.789002 -6.307001,-2.165001 -0.967998,-0.653999 -1.825998,-1.4 -2.542,-2.202 C 18.448,14.222 19.343,12.565 19.834,10.959 c 1.18,0.382 2.37,0.953 3.482,1.703 2.025999,1.369 3.597,3.139 4.421,4.984 0.318,0.712 0.501001,1.395 0.564001,2.037001 -0.624001,0.295 -1.390002,0.458 -2.270001,0.458 M 4.9580002,5.855 c 2.112,-2.405 4.8239994,-3.9 7.0779998,-3.9 0.919,0 1.674,0.252 2.245,0.7540001 0.064,0.055 0.118,0.1199999 0.177,0.1829999 0.047,0.05 0.099,0.096 0.143,0.1489999 0.017,0.021 0.03,0.046 0.046,0.067 -2.587,0.1350001 -5.5530001,1.775 -7.8339998,4.374 C 4.4619999,10.164 3.309,13.311 3.5039999,15.831 c -0.041,-0.023 -0.074,-0.055 -0.1139998,-0.082 C 3.273,15.675 3.1559999,15.6 3.052,15.509 1.041,13.747 1.915,9.3249998 4.9580002,5.855 M 29.195999,19.063999 C 29.089001,18.476 28.907,17.868999 28.629,17.247999 27.732,15.238 26.039,13.321 23.864,11.853 22.641001,11.028 21.358,10.413 20.077999,10.006 20.24,9.2329998 20.308001,8.4829998 20.274,7.7709999 21.905001,8.0299997 23.653,8.7329998 25.243,9.8059998 27.195,11.125 28.705,12.823 29.490999,14.587 c 0.719,1.608 0.735001,3.055 0.047,4.073999 -0.098,0.145001 -0.215999,0.277001 -0.342001,0.403"
         style="fill:#fec80f;fill-opacity:1;fill-rule:evenodd;stroke:none"
         id="path1813" />
    </g>
  </g>
</svg>
