<?xml version="1.0" encoding="UTF-8" standalone="no"?>
<svg
   xmlns:dc="http://purl.org/dc/elements/1.1/"
   xmlns:cc="http://creativecommons.org/ns#"
   xmlns:rdf="http://www.w3.org/1999/02/22-rdf-syntax-ns#"
   xmlns:svg="http://www.w3.org/2000/svg"
   xmlns="http://www.w3.org/2000/svg"
   xmlns:sodipodi="http://sodipodi.sourceforge.net/DTD/sodipodi-0.dtd"
   xmlns:inkscape="http://www.inkscape.org/namespaces/inkscape"
   sodipodi:docname="weegschaal.svg"
   inkscape:version="1.0 (4035a4fb49, 2020-05-01)"
   id="svg10426"
   version="1.1"
   viewBox="0 0 17.991245 17.119631"
   height="17.119631mm"
   width="17.991245mm">
  <defs
     id="defs10420">
    <clipPath
       clipPathUnits="userSpaceOnUse"
       id="clipPath9755">
      <path
         d="M 0,4.8828125e-4 H 2475 V 3503.1255 H 0 Z"
         clip-rule="evenodd"
         id="path9753" />
    </clipPath>
  </defs>
  <sodipodi:namedview
     inkscape:window-maximized="0"
     inkscape:window-y="0"
     inkscape:window-x="104"
     inkscape:window-height="1009"
     inkscape:window-width="1375"
     showgrid="false"
     inkscape:document-rotation="0"
     inkscape:current-layer="layer1"
     inkscape:document-units="mm"
     inkscape:cy="166.63779"
     inkscape:cx="28.284909"
     inkscape:zoom="0.35"
     inkscape:pageshadow="2"
     inkscape:pageopacity="0.0"
     borderopacity="1.0"
     bordercolor="#666666"
     pagecolor="#ffffff"
     id="base" />
  <metadata
     id="metadata10423">
    <rdf:RDF>
      <cc:Work
         rdf:about="">
        <dc:format>image/svg+xml</dc:format>
        <dc:type
           rdf:resource="http://purl.org/dc/dcmitype/StillImage" />
        <dc:title></dc:title>
      </cc:Work>
    </rdf:RDF>
  </metadata>
  <g
     transform="translate(-98.349618,-104.07709)"
     id="layer1"
     inkscape:groupmode="layer"
     inkscape:label="Layer 1">
    <g
       transform="matrix(0.08466666,0,0,0.08466666,-4.3088886,76.014677)"
       id="g9749">
      <g
         id="g9751"
         clip-path="url(#clipPath9755)">
        <g
           id="g9757"
           transform="matrix(6.640625,0,0,6.640625,1212.5,331.4458)">
          <path
             d="m 15.997,3.45 c 5.417,0 9.808,2.971 9.808,6.639 0,0.188 -0.018,0.37 -0.042,0.554 0,0 -9.769,5.234 -9.769,5.234 0,0 -9.7620001,-5.23 -9.7620001,-5.23 -0.023,-0.185 -0.042,-0.37 -0.042,-0.558 C 6.191,6.421 10.582,3.45 15.997,3.45 m 0,-0.7009999 c -5.794,0 -10.5070002,3.2919998 -10.5070002,7.3399999 0,0.243 0.025,0.473 0.047,0.647 0,0 0.045,0.358 0.045,0.358 0,0 0.3190002,0.171 0.3190002,0.171 0,0 9.761,5.230001 9.761,5.230001 0,0 0.332,0.177 0.332,0.177 0,0 0.331001,-0.177 0.331001,-0.177 0,0 9.769998,-5.234001 9.769998,-5.234001 0,0 0.319001,-0.171 0.319001,-0.171 0,0 0.045,-0.361 0.045,-0.361 0.024,-0.197 0.046,-0.41 0.046,-0.64 C 26.506,6.0409999 21.791,2.7490001 15.997,2.7490001 m 7.655,7.2210002 c 0,0 -6.725999,4.8759997 -6.725999,4.8759997 -0.028,0.021 -0.063,0.042 -0.098,0.048 -0.091,-0.301 -0.427,-0.525 -0.839999,-0.525 -0.414,0 -0.75,0.224 -0.841,0.525 -0.035,-0.007 -0.07,-0.027 -0.098,-0.048 0,0 -6.7269995,-4.8759997 -6.7269995,-4.8759997 -0.1470003,-0.1050005 -0.1820002,-0.309 -0.070001,-0.4560004 0.1050005,-0.1470003 0.3010006,-0.1750002 0.4479999,-0.07 0,0 5.8160006,4.2180001 5.8160006,4.2180001 0,0 -4.351,-5.9830004 -4.351,-5.9830004 C 10.06,7.5320001 10.088,7.3280001 10.236,7.224 c 0.147,-0.105 0.357,-0.077 0.462,0.07 0,0 4.351,5.976001 4.351,5.976001 0,0 -2.221,-6.817001 -2.221,-6.817001 -0.056,-0.1750001 0.035,-0.3569998 0.21,-0.413 0.168,-0.049 0.350001,0.043 0.406,0.21 0,0 2.221,6.817 2.221,6.817 0,0 -0.014,-7.8540002 -0.014,-7.8540002 0,-0.19 0.155,-0.3369999 0.344,-0.3369999 0.182,0 0.335999,0.1469999 0.335999,0.3369999 0,0 0.007,7.7550002 0.007,7.7550002 0,0 2.193001,-6.7189999 2.193001,-6.7189999 0.056,-0.1670003 0.237999,-0.2660003 0.406,-0.2100001 0.175,0.056 0.265999,0.2389999 0.209999,0.4140001 0,0 -2.234998,6.8379999 -2.234998,6.8379999 0,0 4.364,-5.9979998 4.364,-5.9979998 C 21.382,7.1459999 21.584999,7.1110001 21.739,7.223 c 0.14,0.1040001 0.175,0.3069997 0.07,0.454 0,0 -4.351,5.984 -4.351,5.984 0,0 5.808001,-4.2180002 5.808001,-4.2180002 0.146999,-0.1049995 0.351,-0.077 0.455999,0.070001 0.105,0.1469993 0.077,0.3519993 -0.07,0.4569998 M 7.6700001,23.433001 c 0.3169999,0.482 0.2769999,1.064998 -0.088,1.302999 -0.3639999,0.240999 -0.915,0.044 -1.231,-0.434999 -0.3139996,-0.480002 -0.276,-1.063 0.087,-1.303002 0.3669996,-0.24 0.9169998,-0.045 1.2319999,0.435002 m 16.648001,0 c -0.316,0.482 -0.276001,1.064998 0.087,1.302999 C 24.77,24.976999 25.32,24.78 25.636,24.301001 c 0.316,-0.480002 0.277,-1.063 -0.086,-1.303002 -0.366998,-0.24 -0.917999,-0.045 -1.231998,0.435002 M 31.841999,4.4349999 c 0,0 -0.042,-0.4489998 -0.042,-0.4489998 0,0 -0.391998,-0.224 -0.391998,-0.224 C 27.211,1.3380001 21.754,0 16.030001,0 10.306,0 4.8270001,1.331 0.588,3.7490001 c 0,0 -0.39200001,0.23 -0.39200001,0.23 0,0 -0.042,0.4489999 -0.042,0.4489999 -1.12800004,11.7 4.28700001,22.763 5.38699991,24.864999 0.2460003,0.469 0.6030002,1.156 10.6570001,1.156 9.695999,0 10.011999,-0.629999 10.264,-1.142 0,0 0.063,-0.118999 0.063,-0.118999 1.948,-3.854 6.361002,-13.971 5.316999,-24.7530001 M 25.677,28.914 c -0.056,0.119001 -0.406,0.218 -0.981001,0.302 C 25.089001,28.375 25.348,26.799 23.485001,24.781 21.606001,22.75 19.204,21.726 17.796,22.665001 c -1.456999,0.966999 -0.350001,5.926998 -0.946,6.907 0,0 -0.652,0 -0.652,0 -0.351,0 -0.708,0 -1.058,-0.007 C 14.551,28.563 15.644,23.631001 14.194,22.664 12.785,21.725 10.383,22.748 8.5050001,24.780001 6.6550002,26.784 6.8930001,28.346001 7.2789998,29.194 6.7249999,29.110001 6.382,29.011999 6.3260002,28.9 5.8709998,28.025 -0.148,16.618999 1.022,4.5120001 5.2610002,2.095 10.649,0.87599999 16.030001,0.87599999 c 5.365999,0 10.726999,1.21200011 14.944,3.64300011 C 32.144001,16.625999 26.118,28.032 25.677,28.914 M 15.992,18.475 c 0,0 -13.9380001,-7.561 -13.9380001,-7.561 C 1.8840001,10.822 1.821,10.609 1.914,10.439 c 0.093,-0.171 0.307,-0.232 0.4749999,-0.141 0,0 13.6070001,7.382 13.6070001,7.382 0,0 13.951001,-7.383999 13.951001,-7.383999 C 30.118,10.207 30.330999,10.271 30.421,10.442 c 0.09,0.171 0.024,0.383 -0.146,0.474 0,0 -14.283,7.559 -14.283,7.559 m -4.418,1.409001 c -0.047,1.380998 1.015,2.281 1.911,1.619999 0.415,-0.306999 0.685,-0.890999 0.706,-1.532 0.047,-1.381 -1.015,-2.281 -1.91,-1.620001 C 11.865,18.659 11.596,19.243 11.574,19.884001 M 9.316,21.039 c 0.3369999,1.138999 1.217,1.652999 1.584,0.926 0.17,-0.337999 0.178,-0.872 0.022,-1.399999 -0.337,-1.139 -1.2159997,-1.653 -1.5830003,-0.926001 -0.17,0.337999 -0.1789999,0.872 -0.023,1.4 M 7.6560001,22.478001 C 7.9349999,23.297001 8.8059998,23.573 9.2229996,22.973 9.4169998,22.695 9.4569998,22.289 9.3269997,21.909 9.0480003,21.09 8.1780005,20.813999 7.7600002,21.414 7.566,21.691999 7.526,22.098 7.6560001,22.478001 M 5.1529999,26.139999 C 5.5760002,26.67 6.3530002,26.591999 6.553,26 6.646,25.725 6.582,25.403999 6.3860002,25.157 c -0.422,-0.529999 -1.2000003,-0.452 -1.4000001,0.140001 -0.092,0.275 -0.029,0.595999 0.1669998,0.842998 M 20.414,19.884001 C 20.368,18.503 19.247999,17.676001 18.399,18.396 c -0.394001,0.334 -0.624,0.934999 -0.601999,1.576 0.046,1.381001 1.165998,2.207001 2.014999,1.487 0.393999,-0.334 0.624001,-0.934 0.602,-1.574999 M 22.673,21.039 c 0.337,-1.139 -0.121999,-2.048001 -0.826,-1.637 -0.327,0.191 -0.625,0.633999 -0.781,1.161999 -0.336,1.139 0.122999,2.049002 0.827,1.638001 0.326999,-0.191 0.624,-0.633999 0.78,-1.163 m 1.661,1.439001 c 0.279001,-0.82 -0.243,-1.569001 -0.939,-1.349001 -0.322999,0.103 -0.602001,0.399999 -0.731,0.78 -0.279,0.82 0.242,1.569001 0.937999,1.348 0.323,-0.101999 0.602001,-0.399 0.732001,-0.778999 m 2.500999,3.661998 C 27.257999,25.608999 27.009001,24.868 26.386,24.806 26.097,24.778 25.799,24.912001 25.601999,25.158001 25.18,25.688999 25.429001,26.43 26.052,26.492001 26.34,26.52 26.639,26.386 26.834999,26.139999"
             style="fill:#fec80f;fill-opacity:1;fill-rule:evenodd;stroke:none"
             id="path9759" />
        </g>
      </g>
    </g>
  </g>
</svg>
