<?xml version="1.0" encoding="UTF-8" standalone="no"?>
<svg
   xmlns:dc="http://purl.org/dc/elements/1.1/"
   xmlns:cc="http://creativecommons.org/ns#"
   xmlns:rdf="http://www.w3.org/1999/02/22-rdf-syntax-ns#"
   xmlns:svg="http://www.w3.org/2000/svg"
   xmlns="http://www.w3.org/2000/svg"
   xmlns:sodipodi="http://sodipodi.sourceforge.net/DTD/sodipodi-0.dtd"
   xmlns:inkscape="http://www.inkscape.org/namespaces/inkscape"
   sodipodi:docname="zwanger_geel.svg"
   inkscape:version="1.0 (4035a4fb49, 2020-05-01)"
   id="svg6597"
   version="1.1"
   viewBox="0 0 9.9245195 21.166569"
   height="21.166569mm"
   width="9.9245195mm">
  <defs
     id="defs6591" />
  <sodipodi:namedview
     inkscape:window-maximized="0"
     inkscape:window-y="0"
     inkscape:window-x="26"
     inkscape:window-height="1009"
     inkscape:window-width="1375"
     showgrid="false"
     inkscape:document-rotation="0"
     inkscape:current-layer="layer1"
     inkscape:document-units="mm"
     inkscape:cy="39.999818"
     inkscape:cx="18.755011"
     inkscape:zoom="0.35"
     inkscape:pageshadow="2"
     inkscape:pageopacity="0.0"
     borderopacity="1.0"
     bordercolor="#666666"
     pagecolor="#ffffff"
     id="base" />
  <metadata
     id="metadata6594">
    <rdf:RDF>
      <cc:Work
         rdf:about="">
        <dc:format>image/svg+xml</dc:format>
        <dc:type
           rdf:resource="http://purl.org/dc/dcmitype/StillImage" />
        <dc:title></dc:title>
      </cc:Work>
    </rdf:RDF>
  </metadata>
  <g
     transform="translate(-100.87107,-137.58338)"
     id="layer1"
     inkscape:groupmode="layer"
     inkscape:label="Layer 1">
    <path
       d="m 104.17903,153.31475 c 0.2368,-0.23614 0,-0.23614 0.2368,-0.47228 0.23614,0 0.23614,0 0.23614,0.47228 0,-0.47228 0.23614,-0.70842 0.47228,-0.70842 0.2368,0 0.2368,-0.47294 -0.23614,-0.94522 0.23614,0.23614 0.47294,0.47228 0.70908,1.18136 -0.23614,0 -0.23614,0 -0.47294,0 -0.23614,0 -0.47228,0.23614 -0.47228,0.70908 0,0 0,0 0.23614,0 0,0 0,0.23614 0,0.23614 0,0 0.23614,0 0.23614,0 0.2368,0 0.2368,0 0.2368,0.23614 0.23614,0 0.23614,0.23614 0,0.47295 0,0 -0.47294,0 -0.47294,0.23614 0.47294,1.4175 -1.41751,0.94522 -2.12659,0.23614 -0.23614,-0.47228 -0.47294,-0.94523 -0.23614,-1.41751 -0.47294,-0.2368 -0.47294,-0.47294 -0.70908,-0.70908 -0.23614,-0.70908 0.23614,-1.4175 0.94522,-1.4175 0.47228,0 0.94523,0.23614 1.18137,0.47228 0,0.23614 0,0.70908 0,0.94522 0,0.23614 0,0.23614 0,0.23614 0,0 0.23614,0.23614 0.23614,0.23614 m -0.70843,5.4352 c 0,0 6.14363,0 6.14363,0 0,-0.70908 0,-1.89044 -0.23614,-2.83567 0,-0.23614 -0.2368,-0.70908 -0.47294,-0.94522 0,0 -0.23614,-0.70909 -0.23614,-0.70909 -0.70909,-0.70842 -0.47295,-1.18136 0,-2.59886 0.23614,-0.70909 0.47228,-0.23614 0.70908,-0.70909 0,-0.47228 0,-0.70908 0.23614,-1.4175 0.23614,-0.23681 0.23614,-0.47295 0.47228,-0.94523 0.2368,-0.2368 0.47294,-0.70908 0.47294,-0.94522 0,-0.94522 0.23614,-2.12659 -0.23614,-2.83567 -0.47294,-0.70909 -0.2368,0 0,-0.94523 0,-0.47294 0,-1.18136 -0.2368,-1.41816 0,-0.47228 0,-0.94523 0.2368,-1.41751 0,0 0,0 0,-0.23614 0,0.23614 0.23614,0.23614 0.47228,0.23614 0,-0.23614 -0.23614,-0.70908 -0.70908,-1.18136 0,0 0,-0.2368 0,-0.2368 0,0 0.2368,0.2368 0.2368,0.2368 -0.2368,-1.18137 -0.94522,-2.12659 -2.12725,-1.89045 -1.18136,0.23614 -1.18136,-0.94522 -3.30795,0 -0.23614,0 -0.47228,0.23614 -0.70908,0.47228 -0.70843,0.70908 -0.70843,1.89045 -0.23614,2.83567 0.47294,0.23614 0.23614,1.18137 0.23614,1.65431 0.47294,0 0.2368,0 0.70908,0 0,0.23614 0,0 0.23614,0.23614 0,0.23614 0,0 0.2368,0.23614 0.23614,0.2368 0,0 0.23614,0.2368 0.23614,0.23614 0.23614,0.23614 0.47228,0.23614 0.23681,0 0.47295,-0.23614 0.70909,-0.23614 0.23614,0 0.47294,0.23614 0.23614,0.47228 0,0 -0.70842,1.41817 -0.70842,1.41817 0,0.23614 0,0.23614 -0.47295,0.47228 -0.23614,0.23614 -0.23614,0.23614 -0.47228,0.47228 -0.2368,0.23681 -0.47294,0.23681 -0.70908,0.47295 -0.47294,0.23614 -0.47294,0.94522 -0.47294,1.4175 -0.94523,0 -0.47228,-0.47228 -1.18137,0.2368 -0.23614,0.23614 -0.23614,0.47228 -0.23614,0.70842 -0.23614,0.23681 0,0.23681 0,0.70909 -0.23614,0.23614 -0.47294,0.47294 -0.70908,0.70908 -0.23614,0 -0.23614,0 -0.23614,0.23614 -0.23614,0.23614 -0.47295,0.47295 -0.70909,0.70909 -0.23614,0.47228 -0.23614,0.94522 -0.23614,1.4175 0,0.94522 0.23614,1.65431 0.94523,2.36339 0.23614,0.47228 0.70908,0.94522 1.4175,1.18137 0,0 0,0.23614 0,0.23614 0,0.47294 0.2368,0.47294 0.2368,0.94522 0,0.23614 0,0.70908 0,0.94522 m 1.18137,-4.96226 c -0.23614,0 -0.23614,0 -0.23614,0 0.23614,0 0.23614,0 0.23614,0 m -2.36339,-2.59953 c 0.94522,-0.70842 2.59953,0 3.30861,1.18137 0.70909,1.41816 0.47228,2.83567 -0.70908,3.30861 -0.94522,0.70908 -2.36273,0.23614 -3.07181,-1.18136 -0.70909,-1.18203 -0.47295,-2.83567 0.47228,-3.30862"
       style="fill:#fec80f;fill-opacity:1;fill-rule:evenodd;stroke:none;stroke-width:0.661458"
       id="path2211" />
  </g>
</svg>
